<svg xmlns="http://www.w3.org/2000/svg" viewBox="0 0 640 632" role="img" aria-labelledby="pb051-title pb051-desc" font-family="system-ui, -apple-system, 'Segoe UI', sans-serif">
<title id="pb051-title">Same regular, different right now</title>
<desc id="pb051-desc">Comic. At 4:59 pm a café regular working on her laptop happily gets her usual coffee from the barista, who stands for the recommender. One second later, at 5:00 pm, she is on her phone with a date, and the barista offers coffee again; she answers: a second ago, sure, now it is date night. Below, three ways the recommender can use the moment "5 pm, date": a pre-filter drops coffee from the menu before ranking; a contextual model takes the moment as an input to the ranking, so wine ranks first and coffee last; a post-filter ranks as usual with coffee first, then drops coffee. All three serve wine. Takeaway: same tastes, different moment; use context before, inside or after ranking.</desc>
<defs>
<marker id="pb051-arrow" markerWidth="8" markerHeight="8" refX="7" refY="4" orient="auto"><path d="M0,0 L8,4 L0,8 Z" fill="#6B7280"/></marker>
<g id="pb051-cup"><path d="M7.5,6.5 Q6,4.5 7.5,2.5 M12,6.5 Q10.5,4.5 12,2.5" fill="none" stroke="#92400E" stroke-width="1.5" stroke-linecap="round"/><path d="M17,11 H18.5 Q21.5,11 21.5,14 Q21.5,17 18.5,17 H16.5" fill="none" stroke="#92400E" stroke-width="2"/><path d="M3.5,9 H17.5 V15 Q17.5,20.5 10.5,20.5 Q3.5,20.5 3.5,15 Z" fill="#FEF3C7" stroke="#92400E" stroke-width="2" stroke-linejoin="round"/><path d="M1.5,22.5 H19.5" stroke="#92400E" stroke-width="2" stroke-linecap="round"/></g>
<g id="pb051-wine"><path d="M6,2.5 H18 Q18.6,12.2 12,13.6 Q5.4,12.2 6,2.5 Z" fill="#FFFFFF" stroke="#4C1D95" stroke-width="1.8" stroke-linejoin="round"/><path d="M6.5,7.5 H17.5 Q16.6,12.4 12,13.3 Q7.4,12.4 6.5,7.5 Z" fill="#4C1D95"/><path d="M12,13.6 V21 M7.5,22 H16.5" stroke="#4C1D95" stroke-width="1.8" stroke-linecap="round"/></g>
<g id="pb051-cake"><path d="M2.5,21 H21.5 V9 L2.5,15.5 Z" fill="#FEF3C7" stroke="#92400E" stroke-width="1.8" stroke-linejoin="round"/><path d="M2.5,15.5 L21.5,9 V12.5 L2.5,18.5 Z" fill="#FFFFFF" stroke="#92400E" stroke-width="1.2" stroke-linejoin="round"/><circle cx="16.5" cy="7.2" r="2.6" fill="#92400E"/></g>
</defs>
<rect x=".5" y=".5" width="639" height="631" rx="14" fill="#FAFAF7" stroke="#E5E7EB"/>
<text x="320" y="36" font-size="19" font-weight="700" fill="#1E1B4B" text-anchor="middle">Same regular, different right now</text>
<!-- panel 1: 4:59 pm, the usual works -->
<g transform="translate(16,52)"><rect x="0" y="0" width="298" height="218" rx="12" fill="#FFFFFF" stroke="#E5E7EB" stroke-width="1.5"/><path d="M12,186 H286" stroke="#E5E7EB" stroke-width="1.5" stroke-linecap="round"/><rect x="12" y="12" width="192" height="24" rx="12" fill="#1E1B4B"/><text x="108" y="29" font-size="14" font-weight="600" fill="#FFFFFF" text-anchor="middle">4:59 pm · laptop · alone</text><rect x="112" y="146" width="92" height="5" rx="2" fill="#D1D5DB"/><rect x="155" y="150" width="6" height="36" fill="#D1D5DB"/><rect x="166" y="120" width="32" height="25" rx="3" fill="#F3F4F6" stroke="#6B7280" stroke-width="1.5"/><circle cx="182" cy="132.5" r="3" fill="#D1D5DB"/><use href="#pb051-cup" x="126" y="122.5"/><path d="M34,186 V148 Q34,132 50,132 H62 Q78,132 78,148 V186 Z" fill="#7C3AED"/><path d="M48,139 L43,132 M64,139 L69,132" stroke="#FFFFFF" stroke-width="2" stroke-linecap="round"/><path d="M48,139 H64 V153 H69 V183 Q69,186 66,186 H46 Q43,186 43,183 V153 H48 Z" fill="#FFFFFF"/><path d="M43,153 H69" stroke="#4C1D95" stroke-width="1.5"/><path d="M50,167 H62" stroke="#4C1D95" stroke-width="1.5" stroke-linecap="round"/><circle cx="56" cy="112" r="16" fill="#FFFFFF" stroke="#4C1D95" stroke-width="2"/><circle cx="51" cy="110" r="2.2" fill="#1E1B4B"/><circle cx="61" cy="110" r="2.2" fill="#1E1B4B"/><path d="M51,119 Q56,123 61,119" fill="none" stroke="#1E1B4B" stroke-width="1.8" stroke-linecap="round"/><path d="M220,186 V148 Q220,132 236,132 H248 Q264,132 264,148 V186 Z" fill="#10B981"/><circle cx="242" cy="112" r="16" fill="#FFFFFF" stroke="#065F46" stroke-width="2"/><circle cx="237" cy="110" r="2.2" fill="#1E1B4B"/><circle cx="247" cy="110" r="2.2" fill="#1E1B4B"/><path d="M237,119 Q242,123 247,119" fill="none" stroke="#1E1B4B" stroke-width="1.8" stroke-linecap="round"/><path d="M22,44 H104 Q116,44 116,56 V78 Q116,90 104,90 H63 L58,97 L49,90 H22 Q10,90 10,78 V56 Q10,44 22,44 Z" fill="#FFFFFF" stroke="#7C3AED" stroke-width="1.5" stroke-linejoin="round"/><text x="63" y="62.5" font-size="15" fill="#1E1B4B" text-anchor="middle"><tspan x="63">Your usual</tspan><tspan x="63" dy="20">coffee!</tspan></text><path d="M182,44 H276 Q288,44 288,56 V78 Q288,90 276,90 H243 L240,97 L229,90 H182 Q170,90 170,78 V56 Q170,44 182,44 Z" fill="#FFFFFF" stroke="#10B981" stroke-width="1.5" stroke-linejoin="round"/><text x="229" y="62.5" font-size="15" fill="#1E1B4B" text-anchor="middle"><tspan x="229">Perfect.</tspan><tspan x="229" dy="20">Still working.</tspan></text><text x="56" y="206" font-size="14" font-weight="700" fill="#4C1D95" text-anchor="middle">Recommender</text><text x="242" y="206" font-size="14" font-weight="700" fill="#065F46" text-anchor="middle">Regular</text></g>
<!-- panel 2: one second later, same offer, wrong moment -->
<g transform="translate(326,52)"><rect x="0" y="0" width="298" height="218" rx="12" fill="#FFFFFF" stroke="#E5E7EB" stroke-width="1.5"/><path d="M12,186 H286" stroke="#E5E7EB" stroke-width="1.5" stroke-linecap="round"/><rect x="12" y="12" width="184" height="24" rx="12" fill="#1E1B4B"/><text x="104" y="29" font-size="14" font-weight="600" fill="#FFFFFF" text-anchor="middle">5:00 pm · phone · date</text><path d="M34,186 V148 Q34,132 50,132 H62 Q78,132 78,148 V186 Z" fill="#7C3AED"/><path d="M48,139 L43,132 M64,139 L69,132" stroke="#FFFFFF" stroke-width="2" stroke-linecap="round"/><path d="M48,139 H64 V153 H69 V183 Q69,186 66,186 H46 Q43,186 43,183 V153 H48 Z" fill="#FFFFFF"/><path d="M43,153 H69" stroke="#4C1D95" stroke-width="1.5"/><path d="M50,167 H62" stroke="#4C1D95" stroke-width="1.5" stroke-linecap="round"/><circle cx="56" cy="112" r="16" fill="#FFFFFF" stroke="#4C1D95" stroke-width="2"/><circle cx="51" cy="110" r="2.2" fill="#1E1B4B"/><circle cx="61" cy="110" r="2.2" fill="#1E1B4B"/><path d="M51,119 Q56,123 61,119" fill="none" stroke="#1E1B4B" stroke-width="1.8" stroke-linecap="round"/><path d="M74,142 L98,129" stroke="#7C3AED" stroke-width="7" stroke-linecap="round"/><use href="#pb051-cup" x="92" y="104"/><path d="M174,186 V148 Q174,132 190,132 H202 Q218,132 218,148 V186 Z" fill="#10B981"/><circle cx="196" cy="112" r="16" fill="#FFFFFF" stroke="#065F46" stroke-width="2"/><circle cx="191" cy="110" r="2.2" fill="#1E1B4B"/><circle cx="201" cy="110" r="2.2" fill="#1E1B4B"/><path d="M191,121 Q197,122 202,118" fill="none" stroke="#1E1B4B" stroke-width="1.8" stroke-linecap="round"/><rect x="167" y="136" width="10" height="16" rx="2" fill="#1E1B4B"/><rect x="169" y="138" width="6" height="10" rx="1" fill="#9CA3AF"/><path d="M232,186 V148 Q232,132 248,132 H260 Q276,132 276,148 V186 Z" fill="#E5E7EB" stroke="#9CA3AF" stroke-width="1.5"/><circle cx="254" cy="112" r="16" fill="#FFFFFF" stroke="#9CA3AF" stroke-width="2"/><circle cx="249" cy="110" r="2.2" fill="#1E1B4B"/><circle cx="259" cy="110" r="2.2" fill="#1E1B4B"/><path d="M249,119 Q254,123 259,119" fill="none" stroke="#1E1B4B" stroke-width="1.8" stroke-linecap="round"/><path d="M248,136 L254,139 L260,136 V142 L254,139 L248,142 Z" fill="#1E1B4B"/><path d="M22,44 H104 Q116,44 116,56 V78 Q116,90 104,90 H63 L58,97 L49,90 H22 Q10,90 10,78 V56 Q10,44 22,44 Z" fill="#FFFFFF" stroke="#7C3AED" stroke-width="1.5" stroke-linejoin="round"/><text x="63" y="62.5" font-size="15" fill="#1E1B4B" text-anchor="middle"><tspan x="63">Your usual</tspan><tspan x="63" dy="20">coffee?</tspan></text><path d="M136,44 H276 Q288,44 288,56 V78 Q288,90 276,90 H197 L194,97 L183,90 H136 Q124,90 124,78 V56 Q124,44 136,44 Z" fill="#FFFFFF" stroke="#10B981" stroke-width="1.5" stroke-linejoin="round"/><text x="206" y="62.5" font-size="15" fill="#1E1B4B" text-anchor="middle"><tspan x="206">A second ago, sure.</tspan><tspan x="206" dy="20">Now? Date night!</tspan></text><text x="56" y="206" font-size="14" font-weight="700" fill="#4C1D95" text-anchor="middle">Recommender</text><text x="196" y="206" font-size="14" font-weight="700" fill="#065F46" text-anchor="middle">Regular</text><text x="254" y="206" font-size="14" font-weight="700" fill="#6B7280" text-anchor="middle">Date</text></g>
<!-- panel 3: where the moment enters the recommender -->
<g transform="translate(16,282)"><rect x="0" y="0" width="608" height="304" rx="12" fill="#FFFFFF" stroke="#E5E7EB" stroke-width="1.5"/><text x="16" y="30" font-size="16" font-weight="700" fill="#1E1B4B">Three ways the recommender can use the moment</text><text x="210" y="56" font-size="14" fill="#6B7280" text-anchor="middle">menu</text><text x="396" y="56" font-size="14" fill="#6B7280" text-anchor="middle">ranked, best first</text><text x="569" y="56" font-size="14" fill="#6B7280" text-anchor="middle">serves</text><text x="16" y="102" font-size="16" font-weight="700" fill="#1E1B4B">Pre-filter</text><text x="16" y="122" font-size="14" fill="#4B5563">before ranking</text><rect x="168" y="88" width="84" height="36" rx="8" fill="#FFFFFF" stroke="#D1D5DB" stroke-width="1.5"/><use href="#pb051-cup" transform="translate(173,95) scale(0.92)"/><use href="#pb051-wine" transform="translate(199,95) scale(0.92)"/><use href="#pb051-cake" transform="translate(225,95) scale(0.92)"/><path d="M254,106 H348" stroke="#6B7280" stroke-width="2" stroke-linecap="round" marker-end="url(#pb051-arrow)"/><path d="M440,106 H540" stroke="#6B7280" stroke-width="2" stroke-linecap="round" marker-end="url(#pb051-arrow)"/><rect x="354" y="88" width="84" height="36" rx="8" fill="#EDE9FE" stroke="#7C3AED" stroke-width="1.5"/><use href="#pb051-wine" transform="translate(372,95) scale(0.92)"/><use href="#pb051-cake" transform="translate(398,95) scale(0.92)"/><rect x="546" y="85" width="46" height="42" rx="8" fill="#D1FAE5" stroke="#10B981" stroke-width="2"/><use href="#pb051-wine" transform="translate(555,92) scale(1.15)"/><rect x="255" y="68" width="96" height="24" rx="12" fill="#1E1B4B"/><text x="303" y="85" font-size="14" font-weight="600" fill="#FFFFFF" text-anchor="middle">5 pm · date</text><path d="M303,92 V101" stroke="#1E1B4B" stroke-width="2" stroke-linecap="round"/><g opacity="0.6"><use href="#pb051-cup" x="291" y="114"/></g><path d="M289,138 L317,114" stroke="#1E1B4B" stroke-width="2" stroke-linecap="round"/><path d="M16,143 H592" stroke="#E5E7EB" stroke-width="1.5"/><text x="16" y="180" font-size="16" font-weight="700" fill="#1E1B4B">Contextual model</text><text x="16" y="200" font-size="14" fill="#4B5563">inside ranking</text><rect x="168" y="166" width="84" height="36" rx="8" fill="#FFFFFF" stroke="#D1D5DB" stroke-width="1.5"/><use href="#pb051-cup" transform="translate(173,173) scale(0.92)"/><use href="#pb051-wine" transform="translate(199,173) scale(0.92)"/><use href="#pb051-cake" transform="translate(225,173) scale(0.92)"/><path d="M254,184 H336" stroke="#6B7280" stroke-width="2" stroke-linecap="round" marker-end="url(#pb051-arrow)"/><path d="M452,184 H540" stroke="#6B7280" stroke-width="2" stroke-linecap="round" marker-end="url(#pb051-arrow)"/><rect x="342" y="146" width="108" height="68" rx="10" fill="#EDE9FE" stroke="#7C3AED" stroke-width="2"/><rect x="348" y="153" width="96" height="24" rx="12" fill="#1E1B4B"/><text x="396" y="170" font-size="14" font-weight="600" fill="#FFFFFF" text-anchor="middle">5 pm · date</text><use href="#pb051-wine" transform="translate(359,184) scale(0.92)"/><use href="#pb051-cake" transform="translate(385,184) scale(0.92)"/><use href="#pb051-cup" transform="translate(411,184) scale(0.92)"/><rect x="546" y="163" width="46" height="42" rx="8" fill="#D1FAE5" stroke="#10B981" stroke-width="2"/><use href="#pb051-wine" transform="translate(555,170) scale(1.15)"/><path d="M16,221 H592" stroke="#E5E7EB" stroke-width="1.5"/><text x="16" y="258" font-size="16" font-weight="700" fill="#1E1B4B">Post-filter</text><text x="16" y="278" font-size="14" fill="#4B5563">after ranking</text><rect x="168" y="244" width="84" height="36" rx="8" fill="#FFFFFF" stroke="#D1D5DB" stroke-width="1.5"/><use href="#pb051-cup" transform="translate(173,251) scale(0.92)"/><use href="#pb051-wine" transform="translate(199,251) scale(0.92)"/><use href="#pb051-cake" transform="translate(225,251) scale(0.92)"/><path d="M254,262 H348" stroke="#6B7280" stroke-width="2" stroke-linecap="round" marker-end="url(#pb051-arrow)"/><path d="M440,262 H540" stroke="#6B7280" stroke-width="2" stroke-linecap="round" marker-end="url(#pb051-arrow)"/><rect x="354" y="244" width="84" height="36" rx="8" fill="#EDE9FE" stroke="#7C3AED" stroke-width="1.5"/><use href="#pb051-cup" transform="translate(359,251) scale(0.92)"/><use href="#pb051-wine" transform="translate(385,251) scale(0.92)"/><use href="#pb051-cake" transform="translate(411,251) scale(0.92)"/><rect x="546" y="241" width="46" height="42" rx="8" fill="#D1FAE5" stroke="#10B981" stroke-width="2"/><use href="#pb051-wine" transform="translate(555,248) scale(1.15)"/><rect x="444" y="224" width="96" height="24" rx="12" fill="#1E1B4B"/><text x="492" y="241" font-size="14" font-weight="600" fill="#FFFFFF" text-anchor="middle">5 pm · date</text><path d="M492,248 V257" stroke="#1E1B4B" stroke-width="2" stroke-linecap="round"/><g opacity="0.6"><use href="#pb051-cup" x="480" y="270"/></g><path d="M478,294 L506,270" stroke="#1E1B4B" stroke-width="2" stroke-linecap="round"/></g>
<text x="320" y="614" font-size="16" fill="#1E1B4B" text-anchor="middle">Same tastes, different moment: use context <tspan font-weight="700" fill="#4C1D95">before</tspan>, <tspan font-weight="700" fill="#4C1D95">inside</tspan> or <tspan font-weight="700" fill="#4C1D95">after</tspan> ranking.</text>
</svg>
