<svg xmlns="http://www.w3.org/2000/svg" viewBox="0 0 640 632" role="img" aria-labelledby="pb091-title pb091-desc" font-family="system-ui, -apple-system, 'Segoe UI', sans-serif">
<title id="pb091-title">The Lunch Rush Has a Memory Budget</title>
<desc id="pb091-desc">Four-panel comic. 1: Before the noon rush the boss warns that the item numbers will not fit: one item is 768 numbers, times 100 million items, 307 GB. 2: The recommender uses CompresSAE to rewrite each item as a code that keeps only its few strongest numbers; the rest are zero and not stored, yet a close copy of the item can be rebuilt from the code. 3: A user holding item A asks for more like this; to check whether item B is similar, the recommender does not rebuild either item but reads only the few cells of a ready-made table where their kept numbers meet, 9 of 81. 4: Memory drops from 307 GB to 26 GB, 12 times smaller, and the click rate is only 1.35% lower, so the recommender finally gets lunch. Keep the strongest few numbers: 12 times less memory, nearly the same clicks.</desc>
<defs><marker id="pb091-ah" markerWidth="8" markerHeight="8" refX="6" refY="4" orient="auto"><path d="M0,0 L8,4 L0,8 Z" fill="#7C3AED"/></marker><marker id="pb091-ahg" markerWidth="8" markerHeight="8" refX="6" refY="4" orient="auto"><path d="M0,0 L8,4 L0,8 Z" fill="#6B7280"/></marker></defs>
<rect x=".5" y=".5" width="639" height="631" rx="14" fill="#FAFAF7" stroke="#E5E7EB"/>
<text x="320" y="33" text-anchor="middle" font-size="19" font-weight="700" fill="#1E1B4B">The Lunch Rush Has a Memory Budget</text>
<g transform="translate(16,48)"><rect x="0" y="0" width="298" height="256" rx="12" fill="#FFFFFF" stroke="#E5E7EB" stroke-width="1.5"/><circle cx="26" cy="24" r="11" fill="#1E1B4B"/><text x="26" y="29" text-anchor="middle" font-size="14" font-weight="700" fill="#FFFFFF">1</text><text x="45" y="30" font-size="16" font-weight="700" fill="#1E1B4B">Too big for memory</text><path d="M12,240 H286" stroke="#E5E7EB" stroke-width="1.5" stroke-linecap="round"/><path d="M24,42 H168 Q180,42 180,54 V84 Q180,96 168,96 H47 L40,150 L33,96 H24 Q12,96 12,84 V54 Q12,42 24,42 Z" fill="#FFFFFF" stroke="#F59E0B" stroke-width="1.5" stroke-linejoin="round"/><text font-size="15" fill="#1E1B4B" text-anchor="middle"><tspan x="96" y="64.25">Noon rush is coming,</tspan><tspan x="96" y="84.25">and this won’t fit!</tspan></text><path d="M218,42 H274 Q286,42 286,54 V64 Q286,76 274,76 H269 L262,150 L255,76 H218 Q206,76 206,64 V54 Q206,42 218,42 Z" fill="#FFFFFF" stroke="#7C3AED" stroke-width="1.5" stroke-linejoin="round"/><text font-size="15" fill="#1E1B4B" text-anchor="middle"><tspan x="246" y="64.25">Gulp.</tspan></text><text x="150" y="122" text-anchor="middle" font-size="14" font-weight="700" fill="#1E1B4B">1 item = 768 numbers</text><rect x="71" y="136" width="6" height="14" rx="1" fill="#7C3AED"/><rect x="79" y="143" width="6" height="7" rx="1" fill="#7C3AED"/><rect x="87" y="132" width="6" height="18" rx="1" fill="#7C3AED"/><rect x="95" y="140" width="6" height="10" rx="1" fill="#7C3AED"/><rect x="103" y="145" width="6" height="5" rx="1" fill="#7C3AED"/><rect x="111" y="134" width="6" height="16" rx="1" fill="#7C3AED"/><rect x="119" y="138" width="6" height="12" rx="1" fill="#7C3AED"/><rect x="127" y="130" width="6" height="20" rx="1" fill="#7C3AED"/><rect x="135" y="142" width="6" height="8" rx="1" fill="#7C3AED"/><rect x="143" y="137" width="6" height="13" rx="1" fill="#7C3AED"/><rect x="151" y="144" width="6" height="6" rx="1" fill="#7C3AED"/><rect x="159" y="133" width="6" height="17" rx="1" fill="#7C3AED"/><rect x="167" y="139" width="6" height="11" rx="1" fill="#7C3AED"/><rect x="175" y="141" width="6" height="9" rx="1" fill="#7C3AED"/><rect x="183" y="131" width="6" height="19" rx="1" fill="#7C3AED"/><rect x="191" y="143" width="6" height="7" rx="1" fill="#7C3AED"/><rect x="199" y="135" width="6" height="15" rx="1" fill="#7C3AED"/><rect x="207" y="140" width="6" height="10" rx="1" fill="#7C3AED"/><rect x="215" y="138" width="6" height="12" rx="1" fill="#7C3AED"/><rect x="223" y="142" width="6" height="8" rx="1" fill="#7C3AED"/><text x="150" y="174" text-anchor="middle" font-size="14" fill="#4B5563">× 100 million items</text><rect x="90" y="184" width="120" height="38" rx="10" fill="#FEF3C7" stroke="#F59E0B" stroke-width="2"/><text x="150" y="210" text-anchor="middle" font-size="21" font-weight="800" fill="#92400E">= 307 GB</text><g transform="translate(40,240) scale(0.8)"><path d="M-23,0 V-40 Q-23,-56 -7,-56 H7 Q23,-56 23,-40 V0 Z" fill="#F59E0B"/><path d="M-6,-56 L0,-46 L6,-56 Z" fill="#FFFFFF"/><path d="M0,-50 L-4,-44 L0,-24 L4,-44 Z" fill="#92400E"/><circle cx="0" cy="-77" r="17" fill="#FFFFFF" stroke="#92400E" stroke-width="2"/><circle cx="-6" cy="-79" r="2.2" fill="#1E1B4B"/><circle cx="6" cy="-79" r="2.2" fill="#1E1B4B"/><ellipse cx="0" cy="-69" rx="3.5" ry="4.5" fill="#1E1B4B"/><path d="M-10,-91 Q0,-99 10,-91" fill="none" stroke="#92400E" stroke-width="3" stroke-linecap="round"/></g><g transform="translate(262,240) scale(0.8)"><path d="M-23,0 V-40 Q-23,-56 -7,-56 H7 Q23,-56 23,-40 V0 Z" fill="#7C3AED"/><rect x="4" y="-48" width="12" height="8" rx="2" fill="#FFFFFF"/><circle cx="0" cy="-77" r="17" fill="#FFFFFF" stroke="#4C1D95" stroke-width="2"/><circle cx="-6" cy="-79" r="2.2" fill="#1E1B4B"/><circle cx="6" cy="-79" r="2.2" fill="#1E1B4B"/><path d="M-6,-68 Q-3,-72 0,-68 Q3,-64 6,-68" fill="none" stroke="#1E1B4B" stroke-width="1.8" stroke-linecap="round"/><path d="M22,-94 Q17,-86 22,-83 Q27,-86 22,-94 Z" fill="#E5E7EB" stroke="#9CA3AF" stroke-width="1.2"/></g></g>
<g transform="translate(326,48)"><rect x="0" y="0" width="298" height="256" rx="12" fill="#FFFFFF" stroke="#E5E7EB" stroke-width="1.5"/><circle cx="26" cy="24" r="11" fill="#1E1B4B"/><text x="26" y="29" text-anchor="middle" font-size="14" font-weight="700" fill="#FFFFFF">2</text><text x="45" y="30" font-size="16" font-weight="700" fill="#1E1B4B">Keep the strongest few</text><path d="M12,240 H286" stroke="#E5E7EB" stroke-width="1.5" stroke-linecap="round"/><path d="M26,42 H274 Q286,42 286,54 V84 Q286,96 274,96 H259 L258,150 L245,96 H26 Q14,96 14,84 V54 Q14,42 26,42 Z" fill="#FFFFFF" stroke="#7C3AED" stroke-width="1.5" stroke-linejoin="round"/><text font-size="15" fill="#1E1B4B" text-anchor="middle"><tspan x="150" y="64.25">Only the big ones stay:</tspan><tspan x="150" y="84.25">enough to rebuild a close copy.</tspan></text><text x="16" y="120" font-size="14" fill="#4B5563">768 numbers</text><rect x="16" y="136" width="6" height="14" rx="1" fill="#7C3AED"/><rect x="24" y="143" width="6" height="7" rx="1" fill="#7C3AED"/><rect x="32" y="132" width="6" height="18" rx="1" fill="#7C3AED"/><rect x="40" y="140" width="6" height="10" rx="1" fill="#7C3AED"/><rect x="48" y="145" width="6" height="5" rx="1" fill="#7C3AED"/><rect x="56" y="134" width="6" height="16" rx="1" fill="#7C3AED"/><rect x="64" y="138" width="6" height="12" rx="1" fill="#7C3AED"/><rect x="72" y="130" width="6" height="20" rx="1" fill="#7C3AED"/><rect x="80" y="142" width="6" height="8" rx="1" fill="#7C3AED"/><rect x="88" y="137" width="6" height="13" rx="1" fill="#7C3AED"/><rect x="96" y="144" width="6" height="6" rx="1" fill="#7C3AED"/><rect x="104" y="133" width="6" height="17" rx="1" fill="#7C3AED"/><rect x="112" y="139" width="6" height="11" rx="1" fill="#7C3AED"/><rect x="120" y="141" width="6" height="9" rx="1" fill="#7C3AED"/><rect x="128" y="131" width="6" height="19" rx="1" fill="#7C3AED"/><rect x="136" y="143" width="6" height="7" rx="1" fill="#7C3AED"/><rect x="144" y="135" width="6" height="15" rx="1" fill="#7C3AED"/><rect x="152" y="140" width="6" height="10" rx="1" fill="#7C3AED"/><rect x="160" y="138" width="6" height="12" rx="1" fill="#7C3AED"/><path d="M40,156 V178" stroke="#7C3AED" stroke-width="2.5" stroke-linecap="round" marker-end="url(#pb091-ah)"/><text x="54" y="174" font-size="14" font-weight="700" fill="#7C3AED">CompresSAE</text><rect x="16" y="210" width="6" height="2" fill="#D1D5DB"/><rect x="24" y="210" width="6" height="2" fill="#D1D5DB"/><rect x="32" y="210" width="6" height="2" fill="#D1D5DB"/><rect x="40" y="188" width="6" height="24" rx="1" fill="#7C3AED"/><rect x="48" y="210" width="6" height="2" fill="#D1D5DB"/><rect x="56" y="210" width="6" height="2" fill="#D1D5DB"/><rect x="64" y="210" width="6" height="2" fill="#D1D5DB"/><rect x="72" y="210" width="6" height="2" fill="#D1D5DB"/><rect x="80" y="210" width="6" height="2" fill="#D1D5DB"/><rect x="88" y="210" width="6" height="2" fill="#D1D5DB"/><rect x="96" y="210" width="6" height="2" fill="#D1D5DB"/><rect x="104" y="194" width="6" height="18" rx="1" fill="#7C3AED"/><rect x="112" y="210" width="6" height="2" fill="#D1D5DB"/><rect x="120" y="210" width="6" height="2" fill="#D1D5DB"/><rect x="128" y="210" width="6" height="2" fill="#D1D5DB"/><rect x="136" y="210" width="6" height="2" fill="#D1D5DB"/><rect x="144" y="210" width="6" height="2" fill="#D1D5DB"/><rect x="152" y="210" width="6" height="2" fill="#D1D5DB"/><rect x="160" y="184" width="6" height="28" rx="1" fill="#7C3AED"/><rect x="168" y="210" width="6" height="2" fill="#D1D5DB"/><rect x="176" y="210" width="6" height="2" fill="#D1D5DB"/><rect x="184" y="210" width="6" height="2" fill="#D1D5DB"/><rect x="192" y="210" width="6" height="2" fill="#D1D5DB"/><rect x="200" y="210" width="6" height="2" fill="#D1D5DB"/><text x="16" y="232" font-size="14" fill="#1E1B4B"><tspan font-weight="700">3 kept</tspan> · rest = 0, not stored</text><path d="M210,198 Q230,166 178,140" fill="none" stroke="#6B7280" stroke-width="2" stroke-dasharray="4 4" stroke-linecap="round" marker-end="url(#pb091-ahg)"/><text x="184" y="126" font-size="14" fill="#4B5563">rebuild</text><g transform="translate(262,240) scale(0.8)"><path d="M-23,0 V-40 Q-23,-56 -7,-56 H7 Q23,-56 23,-40 V0 Z" fill="#7C3AED"/><rect x="4" y="-48" width="12" height="8" rx="2" fill="#FFFFFF"/><circle cx="0" cy="-77" r="17" fill="#FFFFFF" stroke="#4C1D95" stroke-width="2"/><circle cx="-6" cy="-79" r="2.2" fill="#1E1B4B"/><circle cx="6" cy="-79" r="2.2" fill="#1E1B4B"/><path d="M-6,-71 Q0,-65 6,-71" fill="none" stroke="#1E1B4B" stroke-width="1.8" stroke-linecap="round"/></g></g>
<g transform="translate(16,316)"><rect x="0" y="0" width="298" height="256" rx="12" fill="#FFFFFF" stroke="#E5E7EB" stroke-width="1.5"/><circle cx="26" cy="24" r="11" fill="#1E1B4B"/><text x="26" y="29" text-anchor="middle" font-size="14" font-weight="700" fill="#FFFFFF">3</text><text x="45" y="30" font-size="16" font-weight="700" fill="#1E1B4B">Compare without rebuilding</text><path d="M12,240 H286" stroke="#E5E7EB" stroke-width="1.5" stroke-linecap="round"/><path d="M24,42 H130 Q142,42 142,54 V64 Q142,76 130,76 H47 L40,150 L33,76 H24 Q12,76 12,64 V54 Q12,42 24,42 Z" fill="#FFFFFF" stroke="#10B981" stroke-width="1.5" stroke-linejoin="round"/><text font-size="15" fill="#1E1B4B" text-anchor="middle"><tspan x="77" y="64.25">More like this?</tspan></text><path d="M164,42 H274 Q286,42 286,54 V84 Q286,96 274,96 H269 L262,150 L255,96 H164 Q152,96 152,84 V54 Q152,42 164,42 Z" fill="#FFFFFF" stroke="#7C3AED" stroke-width="1.5" stroke-linejoin="round"/><text font-size="15" fill="#1E1B4B" text-anchor="middle"><tspan x="219" y="64.25">Is B like A?</tspan><tspan x="219" y="84.25">9 look-ups. Done!</tspan></text><rect x="104" y="110" width="10" height="10" fill="#F3F4F6" stroke="#FFFFFF" stroke-width="1.5"/><rect x="114" y="110" width="10" height="10" fill="#F3F4F6" stroke="#FFFFFF" stroke-width="1.5"/><rect x="124" y="110" width="10" height="10" fill="#EDE9FE" stroke="#FFFFFF" stroke-width="1.5"/><rect x="134" y="110" width="10" height="10" fill="#F3F4F6" stroke="#FFFFFF" stroke-width="1.5"/><rect x="144" y="110" width="10" height="10" fill="#F3F4F6" stroke="#FFFFFF" stroke-width="1.5"/><rect x="154" y="110" width="10" height="10" fill="#EDE9FE" stroke="#FFFFFF" stroke-width="1.5"/><rect x="164" y="110" width="10" height="10" fill="#F3F4F6" stroke="#FFFFFF" stroke-width="1.5"/><rect x="174" y="110" width="10" height="10" fill="#EDE9FE" stroke="#FFFFFF" stroke-width="1.5"/><rect x="184" y="110" width="10" height="10" fill="#F3F4F6" stroke="#FFFFFF" stroke-width="1.5"/><rect x="104" y="120" width="10" height="10" fill="#EDE9FE" stroke="#FFFFFF" stroke-width="1.5"/><rect x="114" y="120" width="10" height="10" fill="#EDE9FE" stroke="#FFFFFF" stroke-width="1.5"/><rect x="124" y="120" width="10" height="10" fill="#7C3AED" stroke="#FFFFFF" stroke-width="1.5"/><rect x="134" y="120" width="10" height="10" fill="#EDE9FE" stroke="#FFFFFF" stroke-width="1.5"/><rect x="144" y="120" width="10" height="10" fill="#EDE9FE" stroke="#FFFFFF" stroke-width="1.5"/><rect x="154" y="120" width="10" height="10" fill="#7C3AED" stroke="#FFFFFF" stroke-width="1.5"/><rect x="164" y="120" width="10" height="10" fill="#EDE9FE" stroke="#FFFFFF" stroke-width="1.5"/><rect x="174" y="120" width="10" height="10" fill="#7C3AED" stroke="#FFFFFF" stroke-width="1.5"/><rect x="184" y="120" width="10" height="10" fill="#EDE9FE" stroke="#FFFFFF" stroke-width="1.5"/><rect x="104" y="130" width="10" height="10" fill="#F3F4F6" stroke="#FFFFFF" stroke-width="1.5"/><rect x="114" y="130" width="10" height="10" fill="#F3F4F6" stroke="#FFFFFF" stroke-width="1.5"/><rect x="124" y="130" width="10" height="10" fill="#EDE9FE" stroke="#FFFFFF" stroke-width="1.5"/><rect x="134" y="130" width="10" height="10" fill="#F3F4F6" stroke="#FFFFFF" stroke-width="1.5"/><rect x="144" y="130" width="10" height="10" fill="#F3F4F6" stroke="#FFFFFF" stroke-width="1.5"/><rect x="154" y="130" width="10" height="10" fill="#EDE9FE" stroke="#FFFFFF" stroke-width="1.5"/><rect x="164" y="130" width="10" height="10" fill="#F3F4F6" stroke="#FFFFFF" stroke-width="1.5"/><rect x="174" y="130" width="10" height="10" fill="#EDE9FE" stroke="#FFFFFF" stroke-width="1.5"/><rect x="184" y="130" width="10" height="10" fill="#F3F4F6" stroke="#FFFFFF" stroke-width="1.5"/><rect x="104" y="140" width="10" height="10" fill="#F3F4F6" stroke="#FFFFFF" stroke-width="1.5"/><rect x="114" y="140" width="10" height="10" fill="#F3F4F6" stroke="#FFFFFF" stroke-width="1.5"/><rect x="124" y="140" width="10" height="10" fill="#EDE9FE" stroke="#FFFFFF" stroke-width="1.5"/><rect x="134" y="140" width="10" height="10" fill="#F3F4F6" stroke="#FFFFFF" stroke-width="1.5"/><rect x="144" y="140" width="10" height="10" fill="#F3F4F6" stroke="#FFFFFF" stroke-width="1.5"/><rect x="154" y="140" width="10" height="10" fill="#EDE9FE" stroke="#FFFFFF" stroke-width="1.5"/><rect x="164" y="140" width="10" height="10" fill="#F3F4F6" stroke="#FFFFFF" stroke-width="1.5"/><rect x="174" y="140" width="10" height="10" fill="#EDE9FE" stroke="#FFFFFF" stroke-width="1.5"/><rect x="184" y="140" width="10" height="10" fill="#F3F4F6" stroke="#FFFFFF" stroke-width="1.5"/><rect x="104" y="150" width="10" height="10" fill="#EDE9FE" stroke="#FFFFFF" stroke-width="1.5"/><rect x="114" y="150" width="10" height="10" fill="#EDE9FE" stroke="#FFFFFF" stroke-width="1.5"/><rect x="124" y="150" width="10" height="10" fill="#7C3AED" stroke="#FFFFFF" stroke-width="1.5"/><rect x="134" y="150" width="10" height="10" fill="#EDE9FE" stroke="#FFFFFF" stroke-width="1.5"/><rect x="144" y="150" width="10" height="10" fill="#EDE9FE" stroke="#FFFFFF" stroke-width="1.5"/><rect x="154" y="150" width="10" height="10" fill="#7C3AED" stroke="#FFFFFF" stroke-width="1.5"/><rect x="164" y="150" width="10" height="10" fill="#EDE9FE" stroke="#FFFFFF" stroke-width="1.5"/><rect x="174" y="150" width="10" height="10" fill="#7C3AED" stroke="#FFFFFF" stroke-width="1.5"/><rect x="184" y="150" width="10" height="10" fill="#EDE9FE" stroke="#FFFFFF" stroke-width="1.5"/><rect x="104" y="160" width="10" height="10" fill="#F3F4F6" stroke="#FFFFFF" stroke-width="1.5"/><rect x="114" y="160" width="10" height="10" fill="#F3F4F6" stroke="#FFFFFF" stroke-width="1.5"/><rect x="124" y="160" width="10" height="10" fill="#EDE9FE" stroke="#FFFFFF" stroke-width="1.5"/><rect x="134" y="160" width="10" height="10" fill="#F3F4F6" stroke="#FFFFFF" stroke-width="1.5"/><rect x="144" y="160" width="10" height="10" fill="#F3F4F6" stroke="#FFFFFF" stroke-width="1.5"/><rect x="154" y="160" width="10" height="10" fill="#EDE9FE" stroke="#FFFFFF" stroke-width="1.5"/><rect x="164" y="160" width="10" height="10" fill="#F3F4F6" stroke="#FFFFFF" stroke-width="1.5"/><rect x="174" y="160" width="10" height="10" fill="#EDE9FE" stroke="#FFFFFF" stroke-width="1.5"/><rect x="184" y="160" width="10" height="10" fill="#F3F4F6" stroke="#FFFFFF" stroke-width="1.5"/><rect x="104" y="170" width="10" height="10" fill="#F3F4F6" stroke="#FFFFFF" stroke-width="1.5"/><rect x="114" y="170" width="10" height="10" fill="#F3F4F6" stroke="#FFFFFF" stroke-width="1.5"/><rect x="124" y="170" width="10" height="10" fill="#EDE9FE" stroke="#FFFFFF" stroke-width="1.5"/><rect x="134" y="170" width="10" height="10" fill="#F3F4F6" stroke="#FFFFFF" stroke-width="1.5"/><rect x="144" y="170" width="10" height="10" fill="#F3F4F6" stroke="#FFFFFF" stroke-width="1.5"/><rect x="154" y="170" width="10" height="10" fill="#EDE9FE" stroke="#FFFFFF" stroke-width="1.5"/><rect x="164" y="170" width="10" height="10" fill="#F3F4F6" stroke="#FFFFFF" stroke-width="1.5"/><rect x="174" y="170" width="10" height="10" fill="#EDE9FE" stroke="#FFFFFF" stroke-width="1.5"/><rect x="184" y="170" width="10" height="10" fill="#F3F4F6" stroke="#FFFFFF" stroke-width="1.5"/><rect x="104" y="180" width="10" height="10" fill="#EDE9FE" stroke="#FFFFFF" stroke-width="1.5"/><rect x="114" y="180" width="10" height="10" fill="#EDE9FE" stroke="#FFFFFF" stroke-width="1.5"/><rect x="124" y="180" width="10" height="10" fill="#7C3AED" stroke="#FFFFFF" stroke-width="1.5"/><rect x="134" y="180" width="10" height="10" fill="#EDE9FE" stroke="#FFFFFF" stroke-width="1.5"/><rect x="144" y="180" width="10" height="10" fill="#EDE9FE" stroke="#FFFFFF" stroke-width="1.5"/><rect x="154" y="180" width="10" height="10" fill="#7C3AED" stroke="#FFFFFF" stroke-width="1.5"/><rect x="164" y="180" width="10" height="10" fill="#EDE9FE" stroke="#FFFFFF" stroke-width="1.5"/><rect x="174" y="180" width="10" height="10" fill="#7C3AED" stroke="#FFFFFF" stroke-width="1.5"/><rect x="184" y="180" width="10" height="10" fill="#EDE9FE" stroke="#FFFFFF" stroke-width="1.5"/><rect x="104" y="190" width="10" height="10" fill="#F3F4F6" stroke="#FFFFFF" stroke-width="1.5"/><rect x="114" y="190" width="10" height="10" fill="#F3F4F6" stroke="#FFFFFF" stroke-width="1.5"/><rect x="124" y="190" width="10" height="10" fill="#EDE9FE" stroke="#FFFFFF" stroke-width="1.5"/><rect x="134" y="190" width="10" height="10" fill="#F3F4F6" stroke="#FFFFFF" stroke-width="1.5"/><rect x="144" y="190" width="10" height="10" fill="#F3F4F6" stroke="#FFFFFF" stroke-width="1.5"/><rect x="154" y="190" width="10" height="10" fill="#EDE9FE" stroke="#FFFFFF" stroke-width="1.5"/><rect x="164" y="190" width="10" height="10" fill="#F3F4F6" stroke="#FFFFFF" stroke-width="1.5"/><rect x="174" y="190" width="10" height="10" fill="#EDE9FE" stroke="#FFFFFF" stroke-width="1.5"/><rect x="184" y="190" width="10" height="10" fill="#F3F4F6" stroke="#FFFFFF" stroke-width="1.5"/><rect x="95" y="122" width="6" height="6" rx="1.5" fill="#7C3AED"/><rect x="95" y="152" width="6" height="6" rx="1.5" fill="#7C3AED"/><rect x="95" y="182" width="6" height="6" rx="1.5" fill="#7C3AED"/><rect x="126" y="101" width="6" height="6" rx="1.5" fill="#7C3AED"/><rect x="156" y="101" width="6" height="6" rx="1.5" fill="#7C3AED"/><rect x="176" y="101" width="6" height="6" rx="1.5" fill="#7C3AED"/><text x="84" y="160.0" text-anchor="middle" font-size="15" font-weight="700" fill="#4C1D95">A</text><text x="112" y="96" text-anchor="middle" font-size="15" font-weight="700" fill="#4C1D95">B</text><text x="149" y="216" text-anchor="middle" font-size="14" fill="#4B5563">ready-made table</text><text x="149" y="234" text-anchor="middle" font-size="14" fill="#1E1B4B"><tspan font-weight="700">9 of 81</tspan> cells read</text><g transform="translate(40,240) scale(0.8)"><path d="M-23,0 V-40 Q-23,-56 -7,-56 H7 Q23,-56 23,-40 V0 Z" fill="#10B981"/><circle cx="0" cy="-77" r="17" fill="#FFFFFF" stroke="#065F46" stroke-width="2"/><circle cx="-6" cy="-79" r="2.2" fill="#1E1B4B"/><circle cx="6" cy="-79" r="2.2" fill="#1E1B4B"/><path d="M-6,-71 Q0,-65 6,-71" fill="none" stroke="#1E1B4B" stroke-width="1.8" stroke-linecap="round"/><rect x="20" y="-46" width="22" height="26" rx="4" fill="#EDE9FE" stroke="#7C3AED" stroke-width="2"/><text x="31" y="-27" text-anchor="middle" font-size="18" font-weight="700" fill="#4C1D95">A</text></g><g transform="translate(262,240) scale(0.8)"><path d="M-23,0 V-40 Q-23,-56 -7,-56 H7 Q23,-56 23,-40 V0 Z" fill="#7C3AED"/><rect x="4" y="-48" width="12" height="8" rx="2" fill="#FFFFFF"/><circle cx="0" cy="-77" r="17" fill="#FFFFFF" stroke="#4C1D95" stroke-width="2"/><circle cx="-6" cy="-79" r="2.2" fill="#1E1B4B"/><circle cx="6" cy="-79" r="2.2" fill="#1E1B4B"/><path d="M-6,-71 Q0,-65 6,-71" fill="none" stroke="#1E1B4B" stroke-width="1.8" stroke-linecap="round"/></g></g>
<g transform="translate(326,316)"><rect x="0" y="0" width="298" height="256" rx="12" fill="#FFFFFF" stroke="#E5E7EB" stroke-width="1.5"/><circle cx="26" cy="24" r="11" fill="#1E1B4B"/><text x="26" y="29" text-anchor="middle" font-size="14" font-weight="700" fill="#FFFFFF">4</text><text x="45" y="30" font-size="16" font-weight="700" fill="#1E1B4B">Rush served</text><path d="M12,240 H286" stroke="#E5E7EB" stroke-width="1.5" stroke-linecap="round"/><path d="M24,42 H128 Q140,42 140,54 V64 Q140,76 128,76 H47 L40,150 L33,76 H24 Q12,76 12,64 V54 Q12,42 24,42 Z" fill="#FFFFFF" stroke="#F59E0B" stroke-width="1.5" stroke-linejoin="round"/><text font-size="15" fill="#1E1B4B" text-anchor="middle"><tspan x="76" y="64.25">26 GB? It fits!</tspan></text><path d="M162,42 H274 Q286,42 286,54 V84 Q286,96 274,96 H269 L262,150 L255,96 H162 Q150,96 150,84 V54 Q150,42 162,42 Z" fill="#FFFFFF" stroke="#7C3AED" stroke-width="1.5" stroke-linejoin="round"/><text font-size="15" fill="#1E1B4B" text-anchor="middle"><tspan x="218" y="64.25">Now can I</tspan><tspan x="218" y="84.25">have lunch?</tspan></text><text x="70" y="120" font-size="14" fill="#4B5563">Memory</text><rect x="70" y="128" width="160" height="22" rx="4" fill="#FEF3C7" stroke="#F59E0B" stroke-width="1.5"/><text x="78" y="144" font-size="14" font-weight="700" fill="#92400E">307 GB</text><rect x="70" y="156" width="13.6" height="22" rx="3" fill="#7C3AED"/><text x="91.6" y="172" font-size="14" font-weight="700" fill="#4C1D95">26 GB · 12× smaller</text><text x="150" y="204" text-anchor="middle" font-size="14" fill="#1E1B4B">Click rate: only</text><text x="150" y="224" text-anchor="middle" font-size="15" font-weight="700" fill="#065F46">1.35% lower</text><g transform="translate(40,240) scale(0.8)"><path d="M-23,0 V-40 Q-23,-56 -7,-56 H7 Q23,-56 23,-40 V0 Z" fill="#F59E0B"/><path d="M-6,-56 L0,-46 L6,-56 Z" fill="#FFFFFF"/><path d="M0,-50 L-4,-44 L0,-24 L4,-44 Z" fill="#92400E"/><circle cx="0" cy="-77" r="17" fill="#FFFFFF" stroke="#92400E" stroke-width="2"/><circle cx="-6" cy="-79" r="2.2" fill="#1E1B4B"/><circle cx="6" cy="-79" r="2.2" fill="#1E1B4B"/><path d="M-7,-71 Q0,-62 7,-71 Z" fill="#1E1B4B"/><path d="M-10,-91 Q0,-99 10,-91" fill="none" stroke="#92400E" stroke-width="3" stroke-linecap="round"/></g><g transform="translate(262,240) scale(0.8)"><path d="M-23,0 V-40 Q-23,-56 -7,-56 H7 Q23,-56 23,-40 V0 Z" fill="#7C3AED"/><rect x="4" y="-48" width="12" height="8" rx="2" fill="#FFFFFF"/><circle cx="0" cy="-77" r="17" fill="#FFFFFF" stroke="#4C1D95" stroke-width="2"/><circle cx="-6" cy="-79" r="2.2" fill="#1E1B4B"/><circle cx="6" cy="-79" r="2.2" fill="#1E1B4B"/><path d="M-7,-71 Q0,-62 7,-71 Z" fill="#1E1B4B"/><text x="36" y="-22" font-size="22" text-anchor="middle">🥪</text></g></g>
<text x="320" y="606" text-anchor="middle" font-size="16" font-weight="700" fill="#1E1B4B">Keep the <tspan fill="#7C3AED">strongest few numbers</tspan>: <tspan fill="#065F46">12× less memory</tspan>, nearly the same clicks.</text>
</svg>