<svg xmlns="http://www.w3.org/2000/svg" viewBox="0 0 640 470" role="img" aria-labelledby="pb146-title pb146-desc" font-family="system-ui, -apple-system, 'Segoe UI', sans-serif">
<title id="pb146-title">Every pick is relevant, yet the feed goes stale</title>
<desc id="pb146-desc">Toy example: over twelve weeks a viewer's feed narrows from three genres to thrillers only. Every pick still matches their taste, yet clicks on thrillers fall from 40% to 15% and the viewer starts searching instead. Monotony, not inaccuracy, causes fatigue.</desc>
<rect x=".5" y=".5" width="639" height="469" rx="14" fill="#FAFAF7" stroke="#E5E7EB"/>
<text x="320" y="40" text-anchor="middle" font-size="19" font-weight="700" fill="#1E1B4B">Every pick is relevant. The feed still goes stale.</text>
<text x="320" y="64" text-anchor="middle" font-size="14" fill="#4B5563">One viewer's “For you” feed · <tspan fill="#047857" font-weight="700">✓</tspan> = fits their taste · toy numbers</text>
<g id="pb146-col1">
<rect x="24" y="80" width="136" height="204" rx="12" fill="#FFFFFF" stroke="#E5E7EB" stroke-width="1.5"/>
<text x="92" y="104" text-anchor="middle" font-size="15" font-weight="700" fill="#1E1B4B">Week 1</text>
<text x="92" y="123" text-anchor="middle" font-size="14" fill="#4B5563">3 genres</text>
<g><rect x="36" y="134" width="112" height="28" rx="8" fill="#EDE9FE" stroke="#7C3AED" stroke-width="1.5"/>
<text x="46" y="153" font-size="15" font-weight="600" fill="#4C1D95">Thriller</text>
<text x="138" y="153" text-anchor="end" font-size="15" font-weight="700" fill="#047857">✓</text>
<rect x="36" y="170" width="112" height="28" rx="8" fill="#FFFFFF" stroke="#D1D5DB" stroke-width="1.5"/>
<text x="46" y="189" font-size="15" fill="#1E1B4B">Comedy</text>
<text x="138" y="189" text-anchor="end" font-size="15" font-weight="700" fill="#047857">✓</text>
<rect x="36" y="206" width="112" height="28" rx="8" fill="#EDE9FE" stroke="#7C3AED" stroke-width="1.5"/>
<text x="46" y="225" font-size="15" font-weight="600" fill="#4C1D95">Thriller</text>
<text x="138" y="225" text-anchor="end" font-size="15" font-weight="700" fill="#047857">✓</text>
<rect x="36" y="242" width="112" height="28" rx="8" fill="#FFFFFF" stroke="#D1D5DB" stroke-width="1.5"/>
<text x="46" y="261" font-size="15" fill="#1E1B4B">Drama</text>
<text x="138" y="261" text-anchor="end" font-size="15" font-weight="700" fill="#047857">✓</text>
</g></g>
<rect class="pb146-bar" x="64" y="344" width="56" height="64" rx="4" fill="#FCD34D"/>
<text x="92" y="336" text-anchor="middle" font-size="16" font-weight="700" fill="#92400E">40%</text>
<g id="pb146-col2">
<rect x="176" y="80" width="136" height="204" rx="12" fill="#FFFFFF" stroke="#E5E7EB" stroke-width="1.5"/>
<text x="244" y="104" text-anchor="middle" font-size="15" font-weight="700" fill="#1E1B4B">Week 4</text>
<text x="244" y="123" text-anchor="middle" font-size="14" fill="#4B5563">2 genres</text>
<g><rect x="188" y="134" width="112" height="28" rx="8" fill="#EDE9FE" stroke="#7C3AED" stroke-width="1.5"/>
<text x="198" y="153" font-size="15" font-weight="600" fill="#4C1D95">Thriller</text>
<text x="290" y="153" text-anchor="end" font-size="15" font-weight="700" fill="#047857">✓</text>
<rect x="188" y="170" width="112" height="28" rx="8" fill="#EDE9FE" stroke="#7C3AED" stroke-width="1.5"/>
<text x="198" y="189" font-size="15" font-weight="600" fill="#4C1D95">Thriller</text>
<text x="290" y="189" text-anchor="end" font-size="15" font-weight="700" fill="#047857">✓</text>
<rect x="188" y="206" width="112" height="28" rx="8" fill="#FFFFFF" stroke="#D1D5DB" stroke-width="1.5"/>
<text x="198" y="225" font-size="15" fill="#1E1B4B">Comedy</text>
<text x="290" y="225" text-anchor="end" font-size="15" font-weight="700" fill="#047857">✓</text>
<rect x="188" y="242" width="112" height="28" rx="8" fill="#EDE9FE" stroke="#7C3AED" stroke-width="1.5"/>
<text x="198" y="261" font-size="15" font-weight="600" fill="#4C1D95">Thriller</text>
<text x="290" y="261" text-anchor="end" font-size="15" font-weight="700" fill="#047857">✓</text>
</g></g>
<rect class="pb146-bar" x="216" y="355.2" width="56" height="52.800000000000004" rx="4" fill="#FCD34D"/>
<text x="244" y="347.2" text-anchor="middle" font-size="16" font-weight="700" fill="#92400E">33%</text>
<g id="pb146-col3">
<rect x="328" y="80" width="136" height="204" rx="12" fill="#FFFFFF" stroke="#E5E7EB" stroke-width="1.5"/>
<text x="396" y="104" text-anchor="middle" font-size="15" font-weight="700" fill="#1E1B4B">Week 8</text>
<text x="396" y="123" text-anchor="middle" font-size="14" fill="#4B5563">1 genre</text>
<g><rect x="340" y="134" width="112" height="28" rx="8" fill="#EDE9FE" stroke="#7C3AED" stroke-width="1.5"/>
<text x="350" y="153" font-size="15" font-weight="600" fill="#4C1D95">Thriller</text>
<text x="442" y="153" text-anchor="end" font-size="15" font-weight="700" fill="#047857">✓</text>
<rect x="340" y="170" width="112" height="28" rx="8" fill="#EDE9FE" stroke="#7C3AED" stroke-width="1.5"/>
<text x="350" y="189" font-size="15" font-weight="600" fill="#4C1D95">Thriller</text>
<text x="442" y="189" text-anchor="end" font-size="15" font-weight="700" fill="#047857">✓</text>
<rect x="340" y="206" width="112" height="28" rx="8" fill="#EDE9FE" stroke="#7C3AED" stroke-width="1.5"/>
<text x="350" y="225" font-size="15" font-weight="600" fill="#4C1D95">Thriller</text>
<text x="442" y="225" text-anchor="end" font-size="15" font-weight="700" fill="#047857">✓</text>
<rect x="340" y="242" width="112" height="28" rx="8" fill="#EDE9FE" stroke="#7C3AED" stroke-width="1.5"/>
<text x="350" y="261" font-size="15" font-weight="600" fill="#4C1D95">Thriller</text>
<text x="442" y="261" text-anchor="end" font-size="15" font-weight="700" fill="#047857">✓</text>
</g></g>
<rect class="pb146-bar" x="368" y="369.6" width="56" height="38.400000000000006" rx="4" fill="#FCD34D"/>
<text x="396" y="361.6" text-anchor="middle" font-size="16" font-weight="700" fill="#92400E">24%</text>
<g id="pb146-col4">
<rect x="480" y="80" width="136" height="204" rx="12" fill="#FFFFFF" stroke="#E5E7EB" stroke-width="1.5"/>
<text x="548" y="104" text-anchor="middle" font-size="15" font-weight="700" fill="#1E1B4B">Week 12</text>
<text x="548" y="123" text-anchor="middle" font-size="14" fill="#4B5563">1 genre</text>
<g opacity="0.35"><rect x="492" y="134" width="112" height="28" rx="8" fill="#EDE9FE" stroke="#7C3AED" stroke-width="1.5"/>
<text x="502" y="153" font-size="15" font-weight="600" fill="#4C1D95">Thriller</text>
<text x="594" y="153" text-anchor="end" font-size="15" font-weight="700" fill="#047857">✓</text>
<rect x="492" y="242" width="112" height="28" rx="8" fill="#EDE9FE" stroke="#7C3AED" stroke-width="1.5"/>
<text x="502" y="261" font-size="15" font-weight="600" fill="#4C1D95">Thriller</text>
<text x="594" y="261" text-anchor="end" font-size="15" font-weight="700" fill="#047857">✓</text>
</g><path d="M498,170 H598 Q608,170 608,180 V214 Q608,224 598,224 H558 L548,236 L542,224 H498 Q488,224 488,214 V180 Q488,170 498,170 Z" fill="#FFFFFF" stroke="#10B981" stroke-width="1.5"/>
<text x="548" y="192" text-anchor="middle" font-size="15" fill="#1E1B4B">Skip, skip…</text>
<text x="548" y="212" text-anchor="middle" font-size="15" font-weight="700" fill="#065F46">I'll search.</text>
</g>
<rect class="pb146-bar" x="520" y="384" width="56" height="24" rx="4" fill="#F59E0B"/>
<text x="548" y="376" text-anchor="middle" font-size="16" font-weight="700" fill="#92400E">15%</text>
<text x="24" y="314" font-size="15" font-weight="700" fill="#1E1B4B">Clicks on thriller picks <tspan font-weight="400" fill="#4B5563">(e.g.)</tspan></text>
<line x1="24" y1="408" x2="616" y2="408" stroke="#D1D5DB" stroke-width="1.5"/>
<text x="320" y="446" text-anchor="middle" font-size="16" font-weight="700" fill="#1E1B4B">Nothing got <tspan fill="#047857">less accurate</tspan>. The <tspan fill="#B45309">sameness</tspan> wore the viewer out.</text>
</svg>
