<svg xmlns="http://www.w3.org/2000/svg" viewBox="0 0 680 480" width="680" height="480" font-family="system-ui, sans-serif">
  <!-- Title -->
  <text x="340" y="28" text-anchor="middle" font-size="16" font-weight="700" fill="#1C1917">Recommender Algorithm Families</text>

  <!-- Root node -->
  <rect x="240" y="44" width="200" height="32" rx="8" fill="#1C1917"/>
  <text x="340" y="65" text-anchor="middle" font-size="12" font-weight="700" fill="white">Recommender Algorithms</text>

  <!-- === COLUMN 1: Baselines (x=24) === -->
  <line x1="340" y1="76" x2="340" y2="92" stroke="#1C1917" stroke-width="2"/>
  <line x1="68" y1="92" x2="612" y2="92" stroke="#E7E5E4" stroke-width="2"/>

  <!-- Vertical drop -->
  <line x1="68" y1="92" x2="68" y2="110" stroke="#A8A29E" stroke-width="1.5"/>
  <rect x="12" y="110" width="112" height="28" rx="6" fill="#F5F5F4" stroke="#A8A29E" stroke-width="1.5"/>
  <text x="68" y="129" text-anchor="middle" font-size="11" font-weight="600" fill="#57534E">Baselines</text>

  <!-- Baseline leaves -->
  <line x1="68" y1="138" x2="68" y2="250" stroke="#D6D3D1" stroke-width="1"/>
  <circle cx="68" cy="160" r="2" fill="#A8A29E"/>
  <line x1="70" y1="160" x2="82" y2="160" stroke="#D6D3D1" stroke-width="1"/>
  <rect x="82" y="147" width="88" height="26" rx="5" fill="white" stroke="#E7E5E4" stroke-width="1"/>
  <text x="126" y="164" text-anchor="middle" font-size="9" fill="#57534E">Popularity</text>

  <circle cx="68" cy="190" r="2" fill="#A8A29E"/>
  <line x1="70" y1="190" x2="82" y2="190" stroke="#D6D3D1" stroke-width="1"/>
  <rect x="82" y="177" width="88" height="26" rx="5" fill="white" stroke="#E7E5E4" stroke-width="1"/>
  <text x="126" y="194" text-anchor="middle" font-size="9" fill="#57534E">Recency</text>

  <circle cx="68" cy="220" r="2" fill="#A8A29E"/>
  <line x1="70" y1="220" x2="82" y2="220" stroke="#D6D3D1" stroke-width="1"/>
  <rect x="82" y="207" width="88" height="26" rx="5" fill="white" stroke="#E7E5E4" stroke-width="1"/>
  <text x="126" y="224" text-anchor="middle" font-size="9" fill="#57534E">Association Rules</text>

  <!-- === COLUMN 2: Collaborative Filtering (x=204) === -->
  <line x1="204" y1="92" x2="204" y2="110" stroke="#059669" stroke-width="1.5"/>
  <rect x="148" y="110" width="112" height="28" rx="6" fill="#F0FDF4" stroke="#059669" stroke-width="1.5"/>
  <text x="204" y="129" text-anchor="middle" font-size="11" font-weight="600" fill="#059669">Collaborative</text>

  <line x1="204" y1="138" x2="204" y2="220" stroke="#D1FAE5" stroke-width="1"/>
  <circle cx="204" cy="166" r="2" fill="#059669"/>
  <line x1="206" y1="166" x2="218" y2="166" stroke="#D1FAE5" stroke-width="1"/>
  <rect x="218" y="150" width="100" height="34" rx="5" fill="white" stroke="#D1FAE5" stroke-width="1"/>
  <text x="268" y="164" text-anchor="middle" font-size="9" font-weight="500" fill="#059669">Memory-based</text>
  <text x="268" y="177" text-anchor="middle" font-size="8" fill="#78716C">User-kNN, Item-kNN</text>

  <circle cx="204" cy="206" r="2" fill="#059669"/>
  <line x1="206" y1="206" x2="218" y2="206" stroke="#D1FAE5" stroke-width="1"/>
  <rect x="218" y="190" width="100" height="34" rx="5" fill="white" stroke="#D1FAE5" stroke-width="1"/>
  <text x="268" y="204" text-anchor="middle" font-size="9" font-weight="500" fill="#059669">Model-based</text>
  <text x="268" y="217" text-anchor="middle" font-size="8" fill="#78716C">MF, SVD++, AE</text>

  <!-- === COLUMN 3: Content-Based (x=340) === -->
  <line x1="340" y1="92" x2="340" y2="110" stroke="#2563EB" stroke-width="1.5"/>
  <rect x="284" y="110" width="112" height="28" rx="6" fill="#EFF6FF" stroke="#2563EB" stroke-width="1.5"/>
  <text x="340" y="129" text-anchor="middle" font-size="11" font-weight="600" fill="#2563EB">Content-Based</text>

  <line x1="340" y1="138" x2="340" y2="252" stroke="#BFDBFE" stroke-width="1"/>
  <circle cx="340" cy="160" r="2" fill="#2563EB"/>
  <line x1="342" y1="160" x2="354" y2="160" stroke="#BFDBFE" stroke-width="1"/>
  <rect x="354" y="147" width="100" height="26" rx="5" fill="white" stroke="#BFDBFE" stroke-width="1"/>
  <text x="404" y="164" text-anchor="middle" font-size="9" fill="#2563EB">Text Embeddings</text>

  <circle cx="340" cy="190" r="2" fill="#2563EB"/>
  <line x1="342" y1="190" x2="354" y2="190" stroke="#BFDBFE" stroke-width="1"/>
  <rect x="354" y="177" width="100" height="26" rx="5" fill="white" stroke="#BFDBFE" stroke-width="1"/>
  <text x="404" y="194" text-anchor="middle" font-size="9" fill="#2563EB">Image Embeddings</text>

  <circle cx="340" cy="220" r="2" fill="#2563EB"/>
  <line x1="342" y1="220" x2="354" y2="220" stroke="#BFDBFE" stroke-width="1"/>
  <rect x="354" y="207" width="100" height="26" rx="5" fill="white" stroke="#BFDBFE" stroke-width="1"/>
  <text x="404" y="224" text-anchor="middle" font-size="9" fill="#2563EB">Feature Engineering</text>

  <!-- === COLUMN 4: Deep Learning (x=476) === -->
  <line x1="476" y1="92" x2="476" y2="110" stroke="#7C3AED" stroke-width="1.5"/>
  <rect x="420" y="110" width="112" height="28" rx="6" fill="#FDF4FF" stroke="#7C3AED" stroke-width="1.5"/>
  <text x="476" y="129" text-anchor="middle" font-size="11" font-weight="600" fill="#7C3AED">Deep Learning</text>

  <line x1="476" y1="138" x2="476" y2="322" stroke="#E9D5FF" stroke-width="1"/>
  <circle cx="476" cy="160" r="2" fill="#7C3AED"/>
  <line x1="478" y1="160" x2="490" y2="160" stroke="#E9D5FF" stroke-width="1"/>
  <rect x="490" y="147" width="100" height="26" rx="5" fill="white" stroke="#E9D5FF" stroke-width="1"/>
  <text x="540" y="164" text-anchor="middle" font-size="9" fill="#7C3AED">Neural CF (NCF)</text>

  <circle cx="476" cy="196" r="2" fill="#7C3AED"/>
  <line x1="478" y1="196" x2="490" y2="196" stroke="#E9D5FF" stroke-width="1"/>
  <rect x="490" y="183" width="100" height="34" rx="5" fill="white" stroke="#E9D5FF" stroke-width="1"/>
  <text x="540" y="197" text-anchor="middle" font-size="9" fill="#7C3AED">Sequence Models</text>
  <text x="540" y="210" text-anchor="middle" font-size="8" fill="#78716C">RNN, Transformer</text>

  <circle cx="476" cy="236" r="2" fill="#7C3AED"/>
  <line x1="478" y1="236" x2="490" y2="236" stroke="#E9D5FF" stroke-width="1"/>
  <rect x="490" y="223" width="100" height="26" rx="5" fill="white" stroke="#E9D5FF" stroke-width="1"/>
  <text x="540" y="240" text-anchor="middle" font-size="9" fill="#7C3AED">Two-Tower Models</text>

  <circle cx="476" cy="272" r="2" fill="#7C3AED"/>
  <line x1="478" y1="272" x2="490" y2="272" stroke="#E9D5FF" stroke-width="1"/>
  <rect x="490" y="259" width="100" height="34" rx="5" fill="white" stroke="#E9D5FF" stroke-width="1"/>
  <text x="540" y="273" text-anchor="middle" font-size="9" fill="#7C3AED">Graph Neural Nets</text>
  <text x="540" y="286" text-anchor="middle" font-size="8" fill="#78716C">GCN, LightGCN</text>

  <!-- === COLUMN 5: Hybrid & Ensemble (x=612) === -->
  <line x1="612" y1="92" x2="612" y2="110" stroke="#D97706" stroke-width="1.5"/>
  <rect x="556" y="110" width="112" height="28" rx="6" fill="#FFFBEB" stroke="#D97706" stroke-width="1.5"/>
  <text x="612" y="129" text-anchor="middle" font-size="11" font-weight="600" fill="#D97706">Hybrid</text>

  <line x1="612" y1="138" x2="612" y2="252" stroke="#FDE68A" stroke-width="1"/>
  <circle cx="612" cy="160" r="2" fill="#D97706"/>
  <line x1="610" y1="160" x2="598" y2="160" stroke="#FDE68A" stroke-width="1"/>
  <rect x="498" y="147" width="100" height="34" rx="5" fill="white" stroke="#FDE68A" stroke-width="1"/>
  <text x="548" y="161" text-anchor="middle" font-size="9" fill="#D97706">Pipeline</text>
  <text x="548" y="174" text-anchor="middle" font-size="8" fill="#78716C">retrieve-rank-rerank</text>

  <circle cx="612" cy="200" r="2" fill="#D97706"/>
  <line x1="610" y1="200" x2="598" y2="200" stroke="#FDE68A" stroke-width="1"/>
  <rect x="498" y="187" width="100" height="26" rx="5" fill="white" stroke="#FDE68A" stroke-width="1"/>
  <text x="548" y="204" text-anchor="middle" font-size="9" fill="#D97706">Multi-task Learning</text>

  <circle cx="612" cy="234" r="2" fill="#D97706"/>
  <line x1="610" y1="234" x2="598" y2="234" stroke="#FDE68A" stroke-width="1"/>
  <rect x="498" y="221" width="100" height="26" rx="5" fill="white" stroke="#FDE68A" stroke-width="1"/>
  <text x="548" y="238" text-anchor="middle" font-size="9" fill="#D97706">Bandit Exploration</text>

  <!-- Subtle separator -->
  <line x1="40" y1="340" x2="640" y2="340" stroke="#F5F5F4" stroke-width="1"/>

  <!-- Legend at bottom -->
  <rect x="100" y="360" width="480" height="100" rx="8" fill="#FAFAF9" stroke="#E7E5E4" stroke-width="1"/>
  <text x="340" y="382" text-anchor="middle" font-size="10" font-weight="600" fill="#1C1917">Typical adoption path in production systems</text>
  <!-- Arrow path -->
  <rect x="130" y="396" width="70" height="22" rx="4" fill="#F5F5F4" stroke="#A8A29E" stroke-width="1"/>
  <text x="165" y="411" text-anchor="middle" font-size="8" fill="#57534E">Baselines</text>
  <text x="210" y="411" text-anchor="middle" font-size="11" fill="#A8A29E">&#8594;</text>
  <rect x="222" y="396" width="84" height="22" rx="4" fill="#F0FDF4" stroke="#059669" stroke-width="1"/>
  <text x="264" y="411" text-anchor="middle" font-size="8" fill="#059669">Collaborative</text>
  <text x="318" y="411" text-anchor="middle" font-size="11" fill="#A8A29E">&#8594;</text>
  <rect x="330" y="396" width="78" height="22" rx="4" fill="#FDF4FF" stroke="#7C3AED" stroke-width="1"/>
  <text x="369" y="411" text-anchor="middle" font-size="8" fill="#7C3AED">Deep Learning</text>
  <text x="420" y="411" text-anchor="middle" font-size="11" fill="#A8A29E">&#8594;</text>
  <rect x="432" y="396" width="70" height="22" rx="4" fill="#FFFBEB" stroke="#D97706" stroke-width="1"/>
  <text x="467" y="411" text-anchor="middle" font-size="8" fill="#D97706">Hybrid</text>

  <text x="340" y="444" text-anchor="middle" font-size="9" fill="#78716C">Content-based methods complement any stage as feature enrichment</text>
</svg>