<svg xmlns="http://www.w3.org/2000/svg" viewBox="0 0 520 100">
  <defs>
    <linearGradient id="bg" x1="0" y1="0" x2="1" y2="1">
      <stop offset="0%" stop-color="#EDE9FE"/>
      <stop offset="100%" stop-color="#F0F9FF"/>
    </linearGradient>
  </defs>
  <rect width="520" height="100" rx="12" fill="url(#bg)"/>

  <!-- Girl silhouette -->
  <circle cx="42" cy="42" r="11" fill="#7C3AED" opacity=".1"/>
  <circle cx="42" cy="37" r="7.5" fill="#F4D0A0"/>
  <path d="M34.5 35 Q34 28 42 26.5 Q50 28 49.5 35" fill="#5B3A1A"/>
  <path d="M34 35 Q33 40 32 44" fill="none" stroke="#5B3A1A" stroke-width="2" stroke-linecap="round"/>
  <path d="M50 35 Q51 40 52 44" fill="none" stroke="#5B3A1A" stroke-width="2" stroke-linecap="round"/>
  <circle cx="39" cy="37" r=".9" fill="#1C1917"/>
  <circle cx="45" cy="37" r=".9" fill="#1C1917"/>
  <path d="M40 40 q2 2 4 0" fill="none" stroke="#C47A5A" stroke-width=".6" stroke-linecap="round"/>
  <path d="M37 45 L35.5 58 L48.5 58 L47 45 Z" fill="#7C3AED"/>
  <line x1="35.5" y1="48" x2="31" y2="55" stroke="#F4D0A0" stroke-width="2" stroke-linecap="round"/>
  <line x1="48.5" y1="48" x2="53" y2="52" stroke="#F4D0A0" stroke-width="2" stroke-linecap="round"/>
  <rect x="51.5" y="49" width="5" height="8" rx="1.2" fill="#374151"/>
  <rect x="52.3" y="50" width="3.4" height="6" rx=".4" fill="#93C5FD"/>

  <!-- Arrows to inputs -->
  <line x1="62" y1="38" x2="90" y2="22" stroke="#7C3AED" stroke-width=".8" opacity=".2" stroke-dasharray="2 2"/>
  <line x1="62" y1="48" x2="90" y2="50" stroke="#7C3AED" stroke-width="1.2" opacity=".3"/>
  <line x1="62" y1="55" x2="90" y2="78" stroke="#7C3AED" stroke-width=".8" opacity=".2" stroke-dasharray="2 2"/>

  <!-- Input items -->
  <rect x="94" y="12" width="62" height="20" rx="4" fill="#fff" stroke="#10B981" stroke-width=".8"/>
  <text x="106" y="26" font-size="9">🎵</text>
  <text x="120" y="26" font-family="system-ui" font-size="7.5" fill="#374151">Music</text>

  <rect x="94" y="40" width="62" height="20" rx="4" fill="#fff" stroke="#7C3AED" stroke-width="1"/>
  <text x="106" y="54" font-size="9">🎬</text>
  <text x="120" y="54" font-family="system-ui" font-size="7.5" fill="#374151">Videos</text>

  <rect x="94" y="68" width="62" height="20" rx="4" fill="#fff" stroke="#F59E0B" stroke-width=".8"/>
  <text x="106" y="82" font-size="9">📚</text>
  <text x="120" y="82" font-family="system-ui" font-size="7.5" fill="#374151">Books</text>

  <!-- Algorithm -->
  <rect x="180" y="30" width="52" height="40" rx="8" fill="#7C3AED" opacity=".07"/>
  <text x="206" y="48" text-anchor="middle" font-size="14">🧠</text>
  <text x="206" y="62" text-anchor="middle" font-family="system-ui" font-size="6.5" fill="#7C3AED" font-weight="600">Algorithm</text>

  <!-- Arrows -->
  <line x1="158" y1="50" x2="178" y2="50" stroke="#7C3AED" stroke-width=".8" opacity=".2"/>
  <line x1="234" y1="42" x2="260" y2="22" stroke="#10B981" stroke-width=".8" opacity=".3"/>
  <line x1="234" y1="50" x2="260" y2="50" stroke="#10B981" stroke-width="1.2" opacity=".4"/>
  <line x1="234" y1="58" x2="260" y2="78" stroke="#10B981" stroke-width=".8" opacity=".3"/>

  <!-- For you -->
  <rect x="264" y="10" width="56" height="20" rx="4" fill="#10B981" opacity=".08" stroke="#10B981" stroke-width=".5"/>
  <text x="276" y="24" font-size="8">⭐</text>
  <text x="289" y="24" font-family="system-ui" font-size="7" fill="#065F46">For you</text>

  <!-- Trending -->
  <rect x="264" y="40" width="56" height="20" rx="4" fill="#7C3AED" opacity=".08" stroke="#7C3AED" stroke-width=".5"/>
  <text x="276" y="54" font-size="8">🔥</text>
  <text x="289" y="54" font-family="system-ui" font-size="7" fill="#4C1D95">Trending</text>

  <!-- Discover -->
  <rect x="264" y="70" width="56" height="20" rx="4" fill="#F59E0B" opacity=".08" stroke="#F59E0B" stroke-width=".5"/>
  <text x="276" y="84" font-size="8">💡</text>
  <text x="289" y="84" font-family="system-ui" font-size="7" fill="#92400E">Discover</text>

  <!-- Music feed: varied album art -->
  <rect x="330" y="10" width="62" height="20" rx="4" fill="#fff" stroke="#10B981" stroke-width=".4"/>
  <rect x="334" y="13" width="11" height="14" rx="2" fill="#D1FAE5"/><text x="339.5" y="23" text-anchor="middle" font-size="7">🎵</text>
  <rect x="348" y="13" width="11" height="14" rx="2" fill="#FECDD3"/><text x="353.5" y="23" text-anchor="middle" font-size="7">🎸</text>
  <rect x="362" y="13" width="11" height="14" rx="2" fill="#DBEAFE"/><text x="367.5" y="23" text-anchor="middle" font-size="7">🎹</text>
  <rect x="376" y="13" width="11" height="14" rx="2" fill="#FEF3C7" opacity=".4"/>

  <!-- Video feed: different thumbnails -->
  <rect x="330" y="40" width="62" height="20" rx="4" fill="#fff" stroke="#7C3AED" stroke-width=".4"/>
  <!-- Video 1: sunset landscape -->
  <rect x="334" y="43" width="17" height="11" rx="1.5" fill="#FDE68A"/>
  <rect x="334" y="49" width="17" height="5" rx="0" fill="#10B981" opacity=".4"/>
  <circle cx="342.5" cy="48" r="2.2" fill="#7C3AED" opacity=".8"/>
  <path d="M341.5 46.8 l2.5 1.2 l-2.5 1.2 z" fill="#fff"/>
  <rect x="334" y="55.5" width="12" height="1.2" rx=".5" fill="#6B7280" opacity=".3"/>
  <!-- Video 2: dark with red accent -->
  <rect x="355" y="43" width="17" height="11" rx="1.5" fill="#374151"/>
  <rect x="357" y="45" width="5" height="5" rx="1" fill="#EF4444" opacity=".6"/>
  <circle cx="363.5" cy="48" r="2.2" fill="rgba(255,255,255,.7)"/>
  <path d="M362.5 46.8 l2.5 1.2 l-2.5 1.2 z" fill="#374151"/>
  <rect x="355" y="55.5" width="10" height="1.2" rx=".5" fill="#6B7280" opacity=".3"/>
  <!-- Video 3: partial blue -->
  <rect x="376" y="43" width="12" height="11" rx="1.5" fill="#BFDBFE" opacity=".5"/>

  <!-- Books feed: distinct covers -->
  <rect x="330" y="70" width="62" height="20" rx="4" fill="#fff" stroke="#F59E0B" stroke-width=".4"/>
  <!-- Book 1: blue cover with colored stripes -->
  <rect x="335" y="72" width="10" height="15" rx="1" fill="#3B82F6"/>
  <rect x="336.5" y="74" width="7" height="1.8" rx=".3" fill="#fff" opacity=".7"/>
  <rect x="336.5" y="77" width="7" height="1" rx=".3" fill="#93C5FD"/>
  <rect x="336.5" y="79" width="7" height="1" rx=".3" fill="#BFDBFE"/>
  <rect x="336.5" y="83" width="4" height=".8" rx=".3" fill="#fff" opacity=".3"/>
  <!-- Book 2: red cover with stripes -->
  <rect x="348" y="72" width="10" height="15" rx="1" fill="#EF4444"/>
  <rect x="349.5" y="74" width="7" height="1.8" rx=".3" fill="#fff" opacity=".7"/>
  <rect x="348" y="78" width="10" height="1.5" fill="#FCA5A5" opacity=".6"/>
  <rect x="348" y="81" width="10" height="1" fill="#FECACA" opacity=".4"/>
  <rect x="349.5" y="84" width="5" height=".8" rx=".3" fill="#fff" opacity=".3"/>
  <!-- Book 3: green cover with stripes -->
  <rect x="361" y="72" width="10" height="15" rx="1" fill="#10B981"/>
  <rect x="362.5" y="74" width="7" height="1.8" rx=".3" fill="#fff" opacity=".6"/>
  <rect x="361" y="77.5" width="10" height="1" fill="#6EE7B7" opacity=".5"/>
  <rect x="361" y="80" width="10" height="1" fill="#A7F3D0" opacity=".4"/>
  <rect x="362.5" y="83" width="3" height=".8" rx=".3" fill="#fff" opacity=".3"/>
  <!-- Book 4: partial, fading -->
  <rect x="374" y="72" width="10" height="15" rx="1" fill="#F59E0B" opacity=".3"/>
</svg>
