<svg xmlns="http://www.w3.org/2000/svg" width="680" height="250" viewBox="0 0 680 250">
  <style>text { font-family: system-ui, sans-serif; }</style>

  <!-- Title -->
  <text x="340" y="22" text-anchor="middle" font-size="15" font-weight="bold" fill="#7C3AED">Content-Based: Look at What It IS</text>

  <!-- LEFT: Video you watched -->
  <rect x="20" y="40" width="140" height="100" rx="10" fill="#10B981"/>
  <!-- Blocky castle (Minecraft style) -->
  <rect x="50" y="60" width="20" height="30" fill="#065F46"/>
  <rect x="75" y="50" width="15" height="40" fill="#065F46"/>
  <rect x="95" y="65" width="20" height="25" fill="#065F46"/>
  <rect x="40" y="80" width="85" height="12" fill="#065F46"/>
  <!-- Tower tops -->
  <rect x="52" y="52" width="5" height="8" fill="#064E3B"/>
  <rect x="62" y="52" width="5" height="8" fill="#064E3B"/>
  <rect x="77" y="42" width="5" height="8" fill="#064E3B"/>
  <rect x="85" y="42" width="5" height="8" fill="#064E3B"/>
  <!-- Play button overlay -->
  <circle cx="90" cy="82" r="12" fill="rgba(0,0,0,0.4)"/>
  <polygon points="86,76 86,88 96,82" fill="white"/>
  <text x="90" y="120" text-anchor="middle" font-size="8" fill="white" font-weight="bold">Minecraft Castle</text>
  <text x="90" y="155" text-anchor="middle" font-size="11" font-weight="bold" fill="#10B981">You watched this!</text>

  <!-- CENTER: Magnifying glass with tags -->
  <g transform="translate(195, 50)">
    <circle cx="55" cy="50" r="35" fill="none" stroke="#7C3AED" stroke-width="3"/>
    <line x1="80" y1="72" x2="100" y2="92" stroke="#7C3AED" stroke-width="4" stroke-linecap="round"/>

    <!-- Tags inside magnifying glass -->
    <rect x="22" y="34" width="65" height="16" rx="5" fill="#EC4899"/>
    <text x="54" y="46" text-anchor="middle" font-size="8" fill="white" font-weight="bold">Minecraft</text>
    <rect x="25" y="53" width="58" height="16" rx="5" fill="#3B82F6"/>
    <text x="54" y="65" text-anchor="middle" font-size="8" fill="white" font-weight="bold">Building</text>

    <text x="55" y="105" text-anchor="middle" font-size="10" fill="#7C3AED" font-weight="bold">Looking at the tags...</text>
  </g>

  <!-- Arrow -->
  <polygon points="330,95 345,88 345,92 370,92 370,98 345,98 345,102" fill="#F59E0B"/>

  <!-- RIGHT: 3 similar video recommendations -->
  <g transform="translate(385, 35)">
    <!-- Video 1 -->
    <rect x="0" y="0" width="130" height="48" rx="8" fill="#EF4444"/>
    <rect x="6" y="4" width="40" height="28" rx="4" fill="#B91C1C"/>
    <polygon points="20,12 20,26 32,19" fill="white" opacity="0.8"/>
    <text x="82" y="17" text-anchor="middle" font-size="7" fill="white" font-weight="bold">Minecraft</text>
    <text x="82" y="28" text-anchor="middle" font-size="7" fill="white" font-weight="bold">Redstone Tutorial</text>
    <rect x="52" y="32" width="40" height="11" rx="4" fill="#EC4899"/>
    <text x="72" y="40" text-anchor="middle" font-size="6" fill="white">Minecraft</text>
    <rect x="96" y="32" width="30" height="11" rx="4" fill="#3B82F6"/>
    <text x="111" y="40" text-anchor="middle" font-size="6" fill="white">Tutorial</text>

    <!-- Video 2 -->
    <rect x="0" y="55" width="130" height="48" rx="8" fill="#F59E0B"/>
    <rect x="6" y="59" width="40" height="28" rx="4" fill="#B45309"/>
    <polygon points="20,67 20,81 32,74" fill="white" opacity="0.8"/>
    <text x="82" y="72" text-anchor="middle" font-size="7" fill="white" font-weight="bold">Minecraft</text>
    <text x="82" y="83" text-anchor="middle" font-size="7" fill="white" font-weight="bold">House Build</text>
    <rect x="52" y="87" width="40" height="11" rx="4" fill="#EC4899"/>
    <text x="72" y="95" text-anchor="middle" font-size="6" fill="white">Minecraft</text>
    <rect x="96" y="87" width="30" height="11" rx="4" fill="#3B82F6"/>
    <text x="111" y="95" text-anchor="middle" font-size="6" fill="white">Building</text>

    <!-- Video 3 -->
    <rect x="0" y="110" width="130" height="48" rx="8" fill="#3B82F6"/>
    <rect x="6" y="114" width="40" height="28" rx="4" fill="#1D4ED8"/>
    <polygon points="20,122 20,136 32,129" fill="white" opacity="0.8"/>
    <text x="82" y="127" text-anchor="middle" font-size="7" fill="white" font-weight="bold">Roblox Building</text>
    <text x="82" y="138" text-anchor="middle" font-size="7" fill="white" font-weight="bold">Challenge</text>
    <rect x="52" y="142" width="30" height="11" rx="4" fill="#10B981"/>
    <text x="67" y="150" text-anchor="middle" font-size="6" fill="white">Gaming</text>
    <rect x="86" y="142" width="30" height="11" rx="4" fill="#3B82F6"/>
    <text x="101" y="150" text-anchor="middle" font-size="6" fill="white">Building</text>
  </g>

  <!-- Bottom text -->
  <rect x="140" y="210" width="400" height="30" rx="10" fill="#F3E8FF"/>
  <text x="340" y="230" text-anchor="middle" font-size="12" fill="#7C3AED" font-weight="bold">Same tags &#10140; Similar videos!</text>

  <!-- Sparkle -->
  <text x="545" y="55" font-size="14" fill="#FBBF24">&#10024;</text>
  <text x="535" y="195" font-size="12" fill="#FBBF24">&#10024;</text>
</svg>