<svg xmlns="http://www.w3.org/2000/svg" width="560" height="358" viewBox="0 0 560 358"><g fill="none" fill-rule="evenodd"><rect width="560" height="358" fill="#FFF"/><rect width="520" height="1" x="32" y="16" fill="#A9B1B1" opacity=".3"/><rect width="520" height="1" x="32" y="119" fill="#A9B1B1" opacity=".3"/><rect width="520" height="1" x="32" y="223" fill="#A9B1B1" opacity=".3"/><rect width="520" height="1" x="32" y="326" fill="#A9B1B1" opacity=".3"/><path fill="#3BC4A1" d="M50 317 70 317C72.209139 317 74 318.790861 74 321L74 326 74 326 46 326 46 321C46 318.790861 47.790861 317 50 317ZM92 312 112 312C114.209139 312 116 313.790861 116 316L116 326 116 326 88 326 88 316C88 313.790861 89.790861 312 92 312ZM134 309 154 309C156.209139 309 158 310.790861 158 313L158 326 158 326 130 326 130 313C130 310.790861 131.790861 309 134 309ZM176 294 196 294C198.209139 294 200 295.790861 200 298L200 326 200 326 172 326 172 298C172 295.790861 173.790861 294 176 294ZM218 283 238 283C240.209139 283 242 284.790861 242 287L242 326 242 326 214 326 214 287C214 284.790861 215.790861 283 218 283ZM260 269 280 269C282.209139 269 284 270.790861 284 273L284 326 284 326 256 326 256 273C256 270.790861 257.790861 269 260 269ZM302 258 322 258C324.209139 258 326 259.790861 326 262L326 326 326 326 298 326 298 262C298 259.790861 299.790861 258 302 258ZM344 243 364 243C366.209139 243 368 244.790861 368 247L368 326 368 326 340 326 340 247C340 244.790861 341.790861 243 344 243ZM386 212 406 212C408.209139 212 410 213.790861 410 216L410 326 410 326 382 326 382 216C382 213.790861 383.790861 212 386 212ZM428 170 448 170C450.209139 170 452 171.790861 452 174L452 326 452 326 424 326 424 174C424 171.790861 425.790861 170 428 170ZM470 122 490 122C492.209139 122 494 123.790861 494 126L494 326 494 326 466 326 466 126C466 123.790861 467.790861 122 470 122ZM512 29 532 29C534.209139 29 536 30.790861 536 33L536 326 536 326 508 326 508 33C508 30.790861 509.790861 29 512 29Z"/><g fill="#374040" fill-rule="nonzero" transform="translate(128.913 336.91)"><path d="M6.71289062 10.0898438.19140625 10.0898438.19140625 9.18066406 3.63671875 5.35253906C4.14713542 4.77376302 4.4991862 4.30322266 4.69287109 3.94091797 4.88655599 3.57861328 4.98339844 3.20377604 4.98339844 2.81640625 4.98339844 2.296875 4.82617188 1.87076823 4.51171875 1.53808594 4.19726562 1.20540365 3.77799479 1.0390625 3.25390625 1.0390625 2.625 1.0390625 2.13623047 1.2179362 1.78759766 1.57568359 1.43896484 1.93343099 1.26464844 2.4313151 1.26464844 3.06933594L0 3.06933594C0 2.15332031.295084635 1.41276042.885253906.84765625 1.47542318.282552083 2.26497396 0 3.25390625 0 4.17903646 0 4.91048177.242675781 5.44824219.728027344 5.9860026 1.21337891 6.25488281 1.859375 6.25488281 2.66601562 6.25488281 3.64583333 5.63053385 4.8125 4.38183594 6.16601563L1.71582031 9.05761719 6.71289062 9.05761719 6.71289062 10.0898438ZM14.2939453 5.84472656C14.2939453 7.32584635 14.0410156 8.42643229 13.5351562 9.14648438 13.0292969 9.86653646 12.2386068 10.2265625 11.1630859 10.2265625 10.101237 10.2265625 9.31510417 9.87451172 8.8046875 9.17041016 8.29427083 8.46630859 8.02994792 7.41471354 8.01171875 6.015625L8.01171875 4.32714844C8.01171875 2.86425781 8.26464844 1.77734375 8.77050781 1.06640625 9.27636719.35546875 10.0693359 0 11.1494141 0 12.2203776 0 13.0087891.342936198 13.5146484 1.02880859 14.0205078 1.71468099 14.2802734 2.77311198 14.2939453 4.20410156L14.2939453 5.84472656ZM13.0292969 4.11523438C13.0292969 3.04427083 12.8789062 2.26383464 12.578125 1.77392578 12.2773438 1.28401693 11.8011068 1.0390625 11.1494141 1.0390625 10.5022786 1.0390625 10.030599 1.2828776 9.734375 1.77050781 9.43815104 2.25813802 9.28548177 3.0078125 9.27636719 4.01953125L9.27636719 6.04296875C9.27636719 7.11848958 9.43245443 7.91259766 9.74462891 8.42529297 10.0568034 8.93798828 10.5296224 9.19433594 11.1630859 9.19433594 11.7874349 9.19433594 12.2511393 8.95279948 12.5541992 8.46972656 12.8572591 7.98665365 13.015625 7.22558594 13.0292969 6.18652344L13.0292969 4.11523438Z"/><polygon points="20.07 10.09 18.799 10.09 18.799 1.661 16.249 2.598 16.249 1.449 19.872 .089 20.07 .089"/><path d="M30.296875,10.0898438 L23.7753906,10.0898438 L23.7753906,9.18066406 L27.2207031,5.35253906 C27.7311198,4.77376302 28.0831706,4.30322266 28.2768555,3.94091797 C28.4705404,3.57861328 28.5673828,3.20377604 28.5673828,2.81640625 C28.5673828,2.296875 28.4101562,1.87076823 28.0957031,1.53808594 C27.78125,1.20540365 27.3619792,1.0390625 26.8378906,1.0390625 C26.2089844,1.0390625 25.7202148,1.2179362 25.371582,1.57568359 C25.0229492,1.93343099 24.8486328,2.4313151 24.8486328,3.06933594 L23.5839844,3.06933594 C23.5839844,2.15332031 23.879069,1.41276042 24.4692383,0.84765625 C25.0594076,0.282552083 25.8489583,0 26.8378906,0 C27.7630208,0 28.4944661,0.242675781 29.0322266,0.728027344 C29.569987,1.21337891 29.8388672,1.859375 29.8388672,2.66601562 C29.8388672,3.64583333 29.2145182,4.8125 27.9658203,6.16601563 L25.2998047,9.05761719 L30.296875,9.05761719 L30.296875,10.0898438 Z"/></g><g fill="#374040" fill-rule="nonzero" transform="translate(170.913 336.91)"><path d="M6.71289062 10.0898438.19140625 10.0898438.19140625 9.18066406 3.63671875 5.35253906C4.14713542 4.77376302 4.4991862 4.30322266 4.69287109 3.94091797 4.88655599 3.57861328 4.98339844 3.20377604 4.98339844 2.81640625 4.98339844 2.296875 4.82617188 1.87076823 4.51171875 1.53808594 4.19726562 1.20540365 3.77799479 1.0390625 3.25390625 1.0390625 2.625 1.0390625 2.13623047 1.2179362 1.78759766 1.57568359 1.43896484 1.93343099 1.26464844 2.4313151 1.26464844 3.06933594L0 3.06933594C0 2.15332031.295084635 1.41276042.885253906.84765625 1.47542318.282552083 2.26497396 0 3.25390625 0 4.17903646 0 4.91048177.242675781 5.44824219.728027344 5.9860026 1.21337891 6.25488281 1.859375 6.25488281 2.66601562 6.25488281 3.64583333 5.63053385 4.8125 4.38183594 6.16601563L1.71582031 9.05761719 6.71289062 9.05761719 6.71289062 10.0898438ZM14.2939453 5.84472656C14.2939453 7.32584635 14.0410156 8.42643229 13.5351562 9.14648438 13.0292969 9.86653646 12.2386068 10.2265625 11.1630859 10.2265625 10.101237 10.2265625 9.31510417 9.87451172 8.8046875 9.17041016 8.29427083 8.46630859 8.02994792 7.41471354 8.01171875 6.015625L8.01171875 4.32714844C8.01171875 2.86425781 8.26464844 1.77734375 8.77050781 1.06640625 9.27636719.35546875 10.0693359 0 11.1494141 0 12.2203776 0 13.0087891.342936198 13.5146484 1.02880859 14.0205078 1.71468099 14.2802734 2.77311198 14.2939453 4.20410156L14.2939453 5.84472656ZM13.0292969 4.11523438C13.0292969 3.04427083 12.8789062 2.26383464 12.578125 1.77392578 12.2773438 1.28401693 11.8011068 1.0390625 11.1494141 1.0390625 10.5022786 1.0390625 10.030599 1.2828776 9.734375 1.77050781 9.43815104 2.25813802 9.28548177 3.0078125 9.27636719 4.01953125L9.27636719 6.04296875C9.27636719 7.11848958 9.43245443 7.91259766 9.74462891 8.42529297 10.0568034 8.93798828 10.5296224 9.19433594 11.1630859 9.19433594 11.7874349 9.19433594 12.2511393 8.95279948 12.5541992 8.46972656 12.8572591 7.98665365 13.015625 7.22558594 13.0292969 6.18652344L13.0292969 4.11523438Z"/><polygon points="20.07 10.09 18.799 10.09 18.799 1.661 16.249 2.598 16.249 1.449 19.872 .089 20.07 .089"/><path d="M25.6142578,4.49804688 L26.5644531,4.49804688 C27.1614583,4.48893229 27.6308594,4.33170573 27.9726562,4.02636719 C28.3144531,3.72102865 28.4853516,3.30859375 28.4853516,2.7890625 C28.4853516,1.62239583 27.9042969,1.0390625 26.7421875,1.0390625 C26.1953125,1.0390625 25.7589518,1.19514974 25.4331055,1.50732422 C25.1072591,1.8194987 24.9443359,2.23307292 24.9443359,2.74804688 L23.6796875,2.74804688 C23.6796875,1.95963542 23.9679362,1.30452474 24.5444336,0.782714844 C25.120931,0.260904948 25.8535156,0 26.7421875,0 C27.6809896,0 28.4169922,0.248372396 28.9501953,0.745117188 C29.4833984,1.24186198 29.75,1.93229167 29.75,2.81640625 C29.75,3.24934896 29.6098633,3.66861979 29.3295898,4.07421875 C29.0493164,4.47981771 28.6676432,4.7828776 28.1845703,4.98339844 C28.7314453,5.15657552 29.1541341,5.4436849 29.4526367,5.84472656 C29.7511393,6.24576823 29.9003906,6.73567708 29.9003906,7.31445312 C29.9003906,8.20768229 29.608724,8.91634115 29.0253906,9.44042969 C28.4420573,9.96451823 27.6832682,10.2265625 26.7490234,10.2265625 C25.8147786,10.2265625 25.0548503,9.97363281 24.4692383,9.46777344 C23.8836263,8.96191406 23.5908203,8.29427083 23.5908203,7.46484375 L24.8623047,7.46484375 C24.8623047,7.98893229 25.0332031,8.40820312 25.375,8.72265625 C25.7167969,9.03710938 26.1748047,9.19433594 26.7490234,9.19433594 C27.3597005,9.19433594 27.8268229,9.03483073 28.1503906,8.71582031 C28.4739583,8.3968099 28.6357422,7.93880208 28.6357422,7.34179688 C28.6357422,6.76302083 28.4580078,6.3186849 28.1025391,6.00878906 C27.7470703,5.69889323 27.234375,5.53938802 26.5644531,5.53027344 L25.6142578,5.53027344 L25.6142578,4.49804688 Z"/></g><g fill="#374040" fill-rule="nonzero" transform="translate(212.913 336.91)"><path d="M6.71289062 10.0898438.19140625 10.0898438.19140625 9.18066406 3.63671875 5.35253906C4.14713542 4.77376302 4.4991862 4.30322266 4.69287109 3.94091797 4.88655599 3.57861328 4.98339844 3.20377604 4.98339844 2.81640625 4.98339844 2.296875 4.82617188 1.87076823 4.51171875 1.53808594 4.19726562 1.20540365 3.77799479 1.0390625 3.25390625 1.0390625 2.625 1.0390625 2.13623047 1.2179362 1.78759766 1.57568359 1.43896484 1.93343099 1.26464844 2.4313151 1.26464844 3.06933594L0 3.06933594C0 2.15332031.295084635 1.41276042.885253906.84765625 1.47542318.282552083 2.26497396 0 3.25390625 0 4.17903646 0 4.91048177.242675781 5.44824219.728027344 5.9860026 1.21337891 6.25488281 1.859375 6.25488281 2.66601562 6.25488281 3.64583333 5.63053385 4.8125 4.38183594 6.16601563L1.71582031 9.05761719 6.71289062 9.05761719 6.71289062 10.0898438ZM14.2939453 5.84472656C14.2939453 7.32584635 14.0410156 8.42643229 13.5351562 9.14648438 13.0292969 9.86653646 12.2386068 10.2265625 11.1630859 10.2265625 10.101237 10.2265625 9.31510417 9.87451172 8.8046875 9.17041016 8.29427083 8.46630859 8.02994792 7.41471354 8.01171875 6.015625L8.01171875 4.32714844C8.01171875 2.86425781 8.26464844 1.77734375 8.77050781 1.06640625 9.27636719.35546875 10.0693359 0 11.1494141 0 12.2203776 0 13.0087891.342936198 13.5146484 1.02880859 14.0205078 1.71468099 14.2802734 2.77311198 14.2939453 4.20410156L14.2939453 5.84472656ZM13.0292969 4.11523438C13.0292969 3.04427083 12.8789062 2.26383464 12.578125 1.77392578 12.2773438 1.28401693 11.8011068 1.0390625 11.1494141 1.0390625 10.5022786 1.0390625 10.030599 1.2828776 9.734375 1.77050781 9.43815104 2.25813802 9.28548177 3.0078125 9.27636719 4.01953125L9.27636719 6.04296875C9.27636719 7.11848958 9.43245443 7.91259766 9.74462891 8.42529297 10.0568034 8.93798828 10.5296224 9.19433594 11.1630859 9.19433594 11.7874349 9.19433594 12.2511393 8.95279948 12.5541992 8.46972656 12.8572591 7.98665365 13.015625 7.22558594 13.0292969 6.18652344L13.0292969 4.11523438Z"/><polygon points="20.07 10.09 18.799 10.09 18.799 1.661 16.249 2.598 16.249 1.449 19.872 .089 20.07 .089"/><path d="M29.1142578,6.74707031 L30.4951172,6.74707031 L30.4951172,7.77929688 L29.1142578,7.77929688 L29.1142578,10.0898438 L27.8427734,10.0898438 L27.8427734,7.77929688 L23.3105469,7.77929688 L23.3105469,7.03417969 L27.7675781,0.13671875 L29.1142578,0.13671875 L29.1142578,6.74707031 Z M24.7460938,6.74707031 L27.8427734,6.74707031 L27.8427734,1.86621094 L27.6923828,2.13964844 L24.7460938,6.74707031 Z"/></g><g fill="#374040" fill-rule="nonzero" transform="translate(254.913 336.91)"><path d="M6.71289062 10.0898438.19140625 10.0898438.19140625 9.18066406 3.63671875 5.35253906C4.14713542 4.77376302 4.4991862 4.30322266 4.69287109 3.94091797 4.88655599 3.57861328 4.98339844 3.20377604 4.98339844 2.81640625 4.98339844 2.296875 4.82617188 1.87076823 4.51171875 1.53808594 4.19726562 1.20540365 3.77799479 1.0390625 3.25390625 1.0390625 2.625 1.0390625 2.13623047 1.2179362 1.78759766 1.57568359 1.43896484 1.93343099 1.26464844 2.4313151 1.26464844 3.06933594L0 3.06933594C0 2.15332031.295084635 1.41276042.885253906.84765625 1.47542318.282552083 2.26497396 0 3.25390625 0 4.17903646 0 4.91048177.242675781 5.44824219.728027344 5.9860026 1.21337891 6.25488281 1.859375 6.25488281 2.66601562 6.25488281 3.64583333 5.63053385 4.8125 4.38183594 6.16601563L1.71582031 9.05761719 6.71289062 9.05761719 6.71289062 10.0898438ZM14.2939453 5.84472656C14.2939453 7.32584635 14.0410156 8.42643229 13.5351562 9.14648438 13.0292969 9.86653646 12.2386068 10.2265625 11.1630859 10.2265625 10.101237 10.2265625 9.31510417 9.87451172 8.8046875 9.17041016 8.29427083 8.46630859 8.02994792 7.41471354 8.01171875 6.015625L8.01171875 4.32714844C8.01171875 2.86425781 8.26464844 1.77734375 8.77050781 1.06640625 9.27636719.35546875 10.0693359 0 11.1494141 0 12.2203776 0 13.0087891.342936198 13.5146484 1.02880859 14.0205078 1.71468099 14.2802734 2.77311198 14.2939453 4.20410156L14.2939453 5.84472656ZM13.0292969 4.11523438C13.0292969 3.04427083 12.8789062 2.26383464 12.578125 1.77392578 12.2773438 1.28401693 11.8011068 1.0390625 11.1494141 1.0390625 10.5022786 1.0390625 10.030599 1.2828776 9.734375 1.77050781 9.43815104 2.25813802 9.28548177 3.0078125 9.27636719 4.01953125L9.27636719 6.04296875C9.27636719 7.11848958 9.43245443 7.91259766 9.74462891 8.42529297 10.0568034 8.93798828 10.5296224 9.19433594 11.1630859 9.19433594 11.7874349 9.19433594 12.2511393 8.95279948 12.5541992 8.46972656 12.8572591 7.98665365 13.015625 7.22558594 13.0292969 6.18652344L13.0292969 4.11523438Z"/><polygon points="20.07 10.09 18.799 10.09 18.799 1.661 16.249 2.598 16.249 1.449 19.872 .089 20.07 .089"/><path d="M24.3564453,5.09960938 L24.8623047,0.13671875 L29.9619141,0.13671875 L29.9619141,1.30566406 L25.9355469,1.30566406 L25.6347656,4.01953125 C26.1223958,3.73242188 26.6761068,3.58886719 27.2958984,3.58886719 C28.2027995,3.58886719 28.9228516,3.88850911 29.4560547,4.48779297 C29.9892578,5.08707682 30.2558594,5.89713542 30.2558594,6.91796875 C30.2558594,7.94335938 29.9790039,8.75113932 29.425293,9.34130859 C28.871582,9.93147786 28.0979818,10.2265625 27.1044922,10.2265625 C26.2249349,10.2265625 25.5071615,9.9827474 24.9511719,9.49511719 C24.3951823,9.00748698 24.0784505,8.33300781 24.0009766,7.47167969 L25.1972656,7.47167969 C25.2747396,8.04134115 25.4775391,8.47086589 25.8056641,8.76025391 C26.1337891,9.04964193 26.5667318,9.19433594 27.1044922,9.19433594 C27.6923828,9.19433594 28.1538086,8.9938151 28.4887695,8.59277344 C28.8237305,8.19173177 28.9912109,7.63802083 28.9912109,6.93164063 C28.9912109,6.26627604 28.8100586,5.73193359 28.4477539,5.32861328 C28.0854492,4.92529297 27.6035156,4.72363281 27.0019531,4.72363281 C26.4505208,4.72363281 26.0175781,4.84440104 25.703125,5.0859375 L25.3681641,5.359375 L24.3564453,5.09960938 Z"/></g><g fill="#374040" fill-rule="nonzero" transform="translate(296.913 336.91)"><path d="M6.71289062 10.0898438.19140625 10.0898438.19140625 9.18066406 3.63671875 5.35253906C4.14713542 4.77376302 4.4991862 4.30322266 4.69287109 3.94091797 4.88655599 3.57861328 4.98339844 3.20377604 4.98339844 2.81640625 4.98339844 2.296875 4.82617188 1.87076823 4.51171875 1.53808594 4.19726562 1.20540365 3.77799479 1.0390625 3.25390625 1.0390625 2.625 1.0390625 2.13623047 1.2179362 1.78759766 1.57568359 1.43896484 1.93343099 1.26464844 2.4313151 1.26464844 3.06933594L0 3.06933594C0 2.15332031.295084635 1.41276042.885253906.84765625 1.47542318.282552083 2.26497396 0 3.25390625 0 4.17903646 0 4.91048177.242675781 5.44824219.728027344 5.9860026 1.21337891 6.25488281 1.859375 6.25488281 2.66601562 6.25488281 3.64583333 5.63053385 4.8125 4.38183594 6.16601563L1.71582031 9.05761719 6.71289062 9.05761719 6.71289062 10.0898438ZM14.2939453 5.84472656C14.2939453 7.32584635 14.0410156 8.42643229 13.5351562 9.14648438 13.0292969 9.86653646 12.2386068 10.2265625 11.1630859 10.2265625 10.101237 10.2265625 9.31510417 9.87451172 8.8046875 9.17041016 8.29427083 8.46630859 8.02994792 7.41471354 8.01171875 6.015625L8.01171875 4.32714844C8.01171875 2.86425781 8.26464844 1.77734375 8.77050781 1.06640625 9.27636719.35546875 10.0693359 0 11.1494141 0 12.2203776 0 13.0087891.342936198 13.5146484 1.02880859 14.0205078 1.71468099 14.2802734 2.77311198 14.2939453 4.20410156L14.2939453 5.84472656ZM13.0292969 4.11523438C13.0292969 3.04427083 12.8789062 2.26383464 12.578125 1.77392578 12.2773438 1.28401693 11.8011068 1.0390625 11.1494141 1.0390625 10.5022786 1.0390625 10.030599 1.2828776 9.734375 1.77050781 9.43815104 2.25813802 9.28548177 3.0078125 9.27636719 4.01953125L9.27636719 6.04296875C9.27636719 7.11848958 9.43245443 7.91259766 9.74462891 8.42529297 10.0568034 8.93798828 10.5296224 9.19433594 11.1630859 9.19433594 11.7874349 9.19433594 12.2511393 8.95279948 12.5541992 8.46972656 12.8572591 7.98665365 13.015625 7.22558594 13.0292969 6.18652344L13.0292969 4.11523438Z"/><polygon points="20.07 10.09 18.799 10.09 18.799 1.661 16.249 2.598 16.249 1.449 19.872 .089 20.07 .089"/><path d="M28.7382812,0.129882812 L28.7382812,1.203125 L28.5058594,1.203125 C27.5214844,1.22135417 26.7376302,1.51302083 26.1542969,2.078125 C25.5709635,2.64322917 25.233724,3.43847656 25.1425781,4.46386719 C25.6666667,3.86230469 26.3821615,3.56152344 27.2890625,3.56152344 C28.1549479,3.56152344 28.8465169,3.86686198 29.3637695,4.47753906 C29.8810221,5.08821615 30.1396484,5.8766276 30.1396484,6.84277344 C30.1396484,7.86816406 29.8605143,8.68847656 29.3022461,9.30371094 C28.7439779,9.91894531 27.9954427,10.2265625 27.0566406,10.2265625 C26.1041667,10.2265625 25.3317057,9.86083984 24.7392578,9.12939453 C24.1468099,8.39794922 23.8505859,7.45572917 23.8505859,6.30273438 L23.8505859,5.81738281 C23.8505859,3.98535156 24.2413737,2.5851237 25.0229492,1.61669922 C25.8045247,0.64827474 26.9677734,0.152669271 28.5126953,0.129882812 L28.7382812,0.129882812 Z M27.0771484,4.61425781 C26.6442057,4.61425781 26.2454427,4.74414062 25.8808594,5.00390625 C25.516276,5.26367188 25.2633464,5.58951823 25.1220703,5.98144531 L25.1220703,6.44628906 C25.1220703,7.26660156 25.3066406,7.92740885 25.6757812,8.42871094 C26.0449219,8.93001302 26.5052083,9.18066406 27.0566406,9.18066406 C27.6263021,9.18066406 28.074056,8.97102865 28.3999023,8.55175781 C28.7257487,8.13248698 28.8886719,7.58333333 28.8886719,6.90429688 C28.8886719,6.22070312 28.7234701,5.66813151 28.3930664,5.24658203 C28.0626628,4.82503255 27.6240234,4.61425781 27.0771484,4.61425781 Z"/></g><g fill="#374040" fill-rule="nonzero" transform="translate(338.913 336.91)"><path d="M6.71289062 10.0898438.19140625 10.0898438.19140625 9.18066406 3.63671875 5.35253906C4.14713542 4.77376302 4.4991862 4.30322266 4.69287109 3.94091797 4.88655599 3.57861328 4.98339844 3.20377604 4.98339844 2.81640625 4.98339844 2.296875 4.82617188 1.87076823 4.51171875 1.53808594 4.19726562 1.20540365 3.77799479 1.0390625 3.25390625 1.0390625 2.625 1.0390625 2.13623047 1.2179362 1.78759766 1.57568359 1.43896484 1.93343099 1.26464844 2.4313151 1.26464844 3.06933594L0 3.06933594C0 2.15332031.295084635 1.41276042.885253906.84765625 1.47542318.282552083 2.26497396 0 3.25390625 0 4.17903646 0 4.91048177.242675781 5.44824219.728027344 5.9860026 1.21337891 6.25488281 1.859375 6.25488281 2.66601562 6.25488281 3.64583333 5.63053385 4.8125 4.38183594 6.16601563L1.71582031 9.05761719 6.71289062 9.05761719 6.71289062 10.0898438ZM14.2939453 5.84472656C14.2939453 7.32584635 14.0410156 8.42643229 13.5351562 9.14648438 13.0292969 9.86653646 12.2386068 10.2265625 11.1630859 10.2265625 10.101237 10.2265625 9.31510417 9.87451172 8.8046875 9.17041016 8.29427083 8.46630859 8.02994792 7.41471354 8.01171875 6.015625L8.01171875 4.32714844C8.01171875 2.86425781 8.26464844 1.77734375 8.77050781 1.06640625 9.27636719.35546875 10.0693359 0 11.1494141 0 12.2203776 0 13.0087891.342936198 13.5146484 1.02880859 14.0205078 1.71468099 14.2802734 2.77311198 14.2939453 4.20410156L14.2939453 5.84472656ZM13.0292969 4.11523438C13.0292969 3.04427083 12.8789062 2.26383464 12.578125 1.77392578 12.2773438 1.28401693 11.8011068 1.0390625 11.1494141 1.0390625 10.5022786 1.0390625 10.030599 1.2828776 9.734375 1.77050781 9.43815104 2.25813802 9.28548177 3.0078125 9.27636719 4.01953125L9.27636719 6.04296875C9.27636719 7.11848958 9.43245443 7.91259766 9.74462891 8.42529297 10.0568034 8.93798828 10.5296224 9.19433594 11.1630859 9.19433594 11.7874349 9.19433594 12.2511393 8.95279948 12.5541992 8.46972656 12.8572591 7.98665365 13.015625 7.22558594 13.0292969 6.18652344L13.0292969 4.11523438Z"/><polygon points="20.07 10.09 18.799 10.09 18.799 1.661 16.249 2.598 16.249 1.449 19.872 .089 20.07 .089"/><polygon points="30.201 .848 26.079 10.09 24.753 10.09 28.861 1.176 23.475 1.176 23.475 .137 30.201 .137"/></g><g fill="#374040" fill-rule="nonzero" transform="translate(380.913 336.91)"><path d="M6.71289062 10.0898438.19140625 10.0898438.19140625 9.18066406 3.63671875 5.35253906C4.14713542 4.77376302 4.4991862 4.30322266 4.69287109 3.94091797 4.88655599 3.57861328 4.98339844 3.20377604 4.98339844 2.81640625 4.98339844 2.296875 4.82617188 1.87076823 4.51171875 1.53808594 4.19726562 1.20540365 3.77799479 1.0390625 3.25390625 1.0390625 2.625 1.0390625 2.13623047 1.2179362 1.78759766 1.57568359 1.43896484 1.93343099 1.26464844 2.4313151 1.26464844 3.06933594L0 3.06933594C0 2.15332031.295084635 1.41276042.885253906.84765625 1.47542318.282552083 2.26497396 0 3.25390625 0 4.17903646 0 4.91048177.242675781 5.44824219.728027344 5.9860026 1.21337891 6.25488281 1.859375 6.25488281 2.66601562 6.25488281 3.64583333 5.63053385 4.8125 4.38183594 6.16601563L1.71582031 9.05761719 6.71289062 9.05761719 6.71289062 10.0898438ZM14.2939453 5.84472656C14.2939453 7.32584635 14.0410156 8.42643229 13.5351562 9.14648438 13.0292969 9.86653646 12.2386068 10.2265625 11.1630859 10.2265625 10.101237 10.2265625 9.31510417 9.87451172 8.8046875 9.17041016 8.29427083 8.46630859 8.02994792 7.41471354 8.01171875 6.015625L8.01171875 4.32714844C8.01171875 2.86425781 8.26464844 1.77734375 8.77050781 1.06640625 9.27636719.35546875 10.0693359 0 11.1494141 0 12.2203776 0 13.0087891.342936198 13.5146484 1.02880859 14.0205078 1.71468099 14.2802734 2.77311198 14.2939453 4.20410156L14.2939453 5.84472656ZM13.0292969 4.11523438C13.0292969 3.04427083 12.8789062 2.26383464 12.578125 1.77392578 12.2773438 1.28401693 11.8011068 1.0390625 11.1494141 1.0390625 10.5022786 1.0390625 10.030599 1.2828776 9.734375 1.77050781 9.43815104 2.25813802 9.28548177 3.0078125 9.27636719 4.01953125L9.27636719 6.04296875C9.27636719 7.11848958 9.43245443 7.91259766 9.74462891 8.42529297 10.0568034 8.93798828 10.5296224 9.19433594 11.1630859 9.19433594 11.7874349 9.19433594 12.2511393 8.95279948 12.5541992 8.46972656 12.8572591 7.98665365 13.015625 7.22558594 13.0292969 6.18652344L13.0292969 4.11523438Z"/><polygon points="20.07 10.09 18.799 10.09 18.799 1.661 16.249 2.598 16.249 1.449 19.872 .089 20.07 .089"/><path d="M29.8115234,2.734375 C29.8115234,3.23111979 29.6805013,3.67317708 29.418457,4.06054688 C29.1564128,4.44791667 28.8020833,4.75097656 28.3554688,4.96972656 C28.875,5.19303385 29.2862956,5.51888021 29.5893555,5.94726562 C29.8924154,6.37565104 30.0439453,6.8610026 30.0439453,7.40332031 C30.0439453,8.26464844 29.753418,8.95052083 29.1723633,9.4609375 C28.5913086,9.97135417 27.8268229,10.2265625 26.8789062,10.2265625 C25.921875,10.2265625 25.1551107,9.97021484 24.5786133,9.45751953 C24.0021159,8.94482422 23.7138672,8.26009115 23.7138672,7.40332031 C23.7138672,6.8655599 23.8608398,6.38020833 24.1547852,5.94726562 C24.4487305,5.51432292 24.8554688,5.18619792 25.375,4.96289062 C24.9329427,4.74414062 24.5843099,4.44108073 24.3291016,4.05371094 C24.0738932,3.66634115 23.9462891,3.2265625 23.9462891,2.734375 C23.9462891,1.89583333 24.2151693,1.23046875 24.7529297,0.73828125 C25.2906901,0.24609375 25.999349,0 26.8789062,0 C27.7539062,0 28.4614258,0.24609375 29.0014648,0.73828125 C29.5415039,1.23046875 29.8115234,1.89583333 29.8115234,2.734375 Z M28.7792969,7.37597656 C28.7792969,6.81998698 28.6027018,6.36653646 28.2495117,6.015625 C27.8963216,5.66471354 27.4348958,5.48925781 26.8652344,5.48925781 C26.2955729,5.48925781 25.8387044,5.6624349 25.4946289,6.00878906 C25.1505534,6.35514323 24.9785156,6.8108724 24.9785156,7.37597656 C24.9785156,7.94108073 25.1459961,8.38541667 25.480957,8.70898438 C25.815918,9.03255208 26.281901,9.19433594 26.8789062,9.19433594 C27.4713542,9.19433594 27.9361979,9.03141276 28.2734375,8.70556641 C28.6106771,8.37972005 28.7792969,7.93652344 28.7792969,7.37597656 Z M26.8789062,1.0390625 C26.3821615,1.0390625 25.9799805,1.19287109 25.6723633,1.50048828 C25.3647461,1.80810547 25.2109375,2.22623698 25.2109375,2.75488281 C25.2109375,3.26074219 25.3624674,3.66975911 25.6655273,3.98193359 C25.9685872,4.29410807 26.3730469,4.45019531 26.8789062,4.45019531 C27.3847656,4.45019531 27.7892253,4.29410807 28.0922852,3.98193359 C28.3953451,3.66975911 28.546875,3.26074219 28.546875,2.75488281 C28.546875,2.24902344 28.3896484,1.83658854 28.0751953,1.51757812 C27.7607422,1.19856771 27.3619792,1.0390625 26.8789062,1.0390625 Z"/></g><g fill="#374040" fill-rule="nonzero" transform="translate(422.913 336.91)"><path d="M6.71289062 10.0898438.19140625 10.0898438.19140625 9.18066406 3.63671875 5.35253906C4.14713542 4.77376302 4.4991862 4.30322266 4.69287109 3.94091797 4.88655599 3.57861328 4.98339844 3.20377604 4.98339844 2.81640625 4.98339844 2.296875 4.82617188 1.87076823 4.51171875 1.53808594 4.19726562 1.20540365 3.77799479 1.0390625 3.25390625 1.0390625 2.625 1.0390625 2.13623047 1.2179362 1.78759766 1.57568359 1.43896484 1.93343099 1.26464844 2.4313151 1.26464844 3.06933594L0 3.06933594C0 2.15332031.295084635 1.41276042.885253906.84765625 1.47542318.282552083 2.26497396 0 3.25390625 0 4.17903646 0 4.91048177.242675781 5.44824219.728027344 5.9860026 1.21337891 6.25488281 1.859375 6.25488281 2.66601562 6.25488281 3.64583333 5.63053385 4.8125 4.38183594 6.16601563L1.71582031 9.05761719 6.71289062 9.05761719 6.71289062 10.0898438ZM14.2939453 5.84472656C14.2939453 7.32584635 14.0410156 8.42643229 13.5351562 9.14648438 13.0292969 9.86653646 12.2386068 10.2265625 11.1630859 10.2265625 10.101237 10.2265625 9.31510417 9.87451172 8.8046875 9.17041016 8.29427083 8.46630859 8.02994792 7.41471354 8.01171875 6.015625L8.01171875 4.32714844C8.01171875 2.86425781 8.26464844 1.77734375 8.77050781 1.06640625 9.27636719.35546875 10.0693359 0 11.1494141 0 12.2203776 0 13.0087891.342936198 13.5146484 1.02880859 14.0205078 1.71468099 14.2802734 2.77311198 14.2939453 4.20410156L14.2939453 5.84472656ZM13.0292969 4.11523438C13.0292969 3.04427083 12.8789062 2.26383464 12.578125 1.77392578 12.2773438 1.28401693 11.8011068 1.0390625 11.1494141 1.0390625 10.5022786 1.0390625 10.030599 1.2828776 9.734375 1.77050781 9.43815104 2.25813802 9.28548177 3.0078125 9.27636719 4.01953125L9.27636719 6.04296875C9.27636719 7.11848958 9.43245443 7.91259766 9.74462891 8.42529297 10.0568034 8.93798828 10.5296224 9.19433594 11.1630859 9.19433594 11.7874349 9.19433594 12.2511393 8.95279948 12.5541992 8.46972656 12.8572591 7.98665365 13.015625 7.22558594 13.0292969 6.18652344L13.0292969 4.11523438Z"/><polygon points="20.07 10.09 18.799 10.09 18.799 1.661 16.249 2.598 16.249 1.449 19.872 .089 20.07 .089"/><path d="M28.6220703,5.71484375 C28.3577474,6.02929687 28.0421549,6.28222656 27.675293,6.47363281 C27.308431,6.66503906 26.90625,6.76074219 26.46875,6.76074219 C25.8945312,6.76074219 25.3943685,6.61946615 24.9682617,6.33691406 C24.5421549,6.05436198 24.2128906,5.65673828 23.9804688,5.14404297 C23.7480469,4.63134766 23.6318359,4.06510417 23.6318359,3.4453125 C23.6318359,2.77994792 23.7583008,2.18066406 24.0112305,1.64746094 C24.2641602,1.11425781 24.6230469,0.706380208 25.0878906,0.423828125 C25.5527344,0.141276042 26.0950521,0 26.7148438,0 C27.6992188,0 28.4750977,0.368001302 29.0424805,1.10400391 C29.6098633,1.84000651 29.8935547,2.84375 29.8935547,4.11523438 L29.8935547,4.484375 C29.8935547,6.42122396 29.5107422,7.8351237 28.7451172,8.72607422 C27.9794922,9.61702474 26.8242188,10.0738932 25.2792969,10.0966797 L25.0332031,10.0966797 L25.0332031,9.03027344 L25.2998047,9.03027344 C26.3434245,9.01204427 27.1455078,8.73974609 27.7060547,8.21337891 C28.2666016,7.68701172 28.5719401,6.85416667 28.6220703,5.71484375 Z M26.6738281,5.71484375 C27.0976562,5.71484375 27.488444,5.58496094 27.8461914,5.32519531 C28.2039388,5.06542969 28.4648438,4.74414062 28.6289062,4.36132812 L28.6289062,3.85546875 C28.6289062,3.02604167 28.4488932,2.3515625 28.0888672,1.83203125 C27.7288411,1.3125 27.273112,1.05273438 26.7216797,1.05273438 C26.1656901,1.05273438 25.7190755,1.26578776 25.3818359,1.69189453 C25.0445964,2.1180013 24.8759766,2.6796875 24.8759766,3.37695312 C24.8759766,4.05598958 25.0388997,4.61539714 25.3647461,5.05517578 C25.6905924,5.49495443 26.1269531,5.71484375 26.6738281,5.71484375 Z"/></g><path fill="#374040" fill-rule="nonzero" d="M6.71289062 10.0898438.19140625 10.0898438.19140625 9.18066406 3.63671875 5.35253906C4.14713542 4.77376302 4.4991862 4.30322266 4.69287109 3.94091797 4.88655599 3.57861328 4.98339844 3.20377604 4.98339844 2.81640625 4.98339844 2.296875 4.82617188 1.87076823 4.51171875 1.53808594 4.19726562 1.20540365 3.77799479 1.0390625 3.25390625 1.0390625 2.625 1.0390625 2.13623047 1.2179362 1.78759766 1.57568359 1.43896484 1.93343099 1.26464844 2.4313151 1.26464844 3.06933594L0 3.06933594C0 2.15332031.295084635 1.41276042.885253906.84765625 1.47542318.282552083 2.26497396 0 3.25390625 0 4.17903646 0 4.91048177.242675781 5.44824219.728027344 5.9860026 1.21337891 6.25488281 1.859375 6.25488281 2.66601562 6.25488281 3.64583333 5.63053385 4.8125 4.38183594 6.16601563L1.71582031 9.05761719 6.71289062 9.05761719 6.71289062 10.0898438ZM14.2939453 5.84472656C14.2939453 7.32584635 14.0410156 8.42643229 13.5351562 9.14648438 13.0292969 9.86653646 12.2386068 10.2265625 11.1630859 10.2265625 10.101237 10.2265625 9.31510417 9.87451172 8.8046875 9.17041016 8.29427083 8.46630859 8.02994792 7.41471354 8.01171875 6.015625L8.01171875 4.32714844C8.01171875 2.86425781 8.26464844 1.77734375 8.77050781 1.06640625 9.27636719.35546875 10.0693359 0 11.1494141 0 12.2203776 0 13.0087891.342936198 13.5146484 1.02880859 14.0205078 1.71468099 14.2802734 2.77311198 14.2939453 4.20410156L14.2939453 5.84472656ZM13.0292969 4.11523438C13.0292969 3.04427083 12.8789062 2.26383464 12.578125 1.77392578 12.2773438 1.28401693 11.8011068 1.0390625 11.1494141 1.0390625 10.5022786 1.0390625 10.030599 1.2828776 9.734375 1.77050781 9.43815104 2.25813802 9.28548177 3.0078125 9.27636719 4.01953125L9.27636719 6.04296875C9.27636719 7.11848958 9.43245443 7.91259766 9.74462891 8.42529297 10.0568034 8.93798828 10.5296224 9.19433594 11.1630859 9.19433594 11.7874349 9.19433594 12.2511393 8.95279948 12.5541992 8.46972656 12.8572591 7.98665365 13.015625 7.22558594 13.0292969 6.18652344L13.0292969 4.11523438ZM22.4355469 10.0898438 15.9140625 10.0898438 15.9140625 9.18066406 19.359375 5.35253906C19.8697917 4.77376302 20.2218424 4.30322266 20.4155273 3.94091797 20.6092122 3.57861328 20.7060547 3.20377604 20.7060547 2.81640625 20.7060547 2.296875 20.5488281 1.87076823 20.234375 1.53808594 19.9199219 1.20540365 19.500651 1.0390625 18.9765625 1.0390625 18.3476562 1.0390625 17.8588867 1.2179362 17.5102539 1.57568359 17.1616211 1.93343099 16.9873047 2.4313151 16.9873047 3.06933594L15.7226562 3.06933594C15.7226562 2.15332031 16.0177409 1.41276042 16.6079102.84765625 17.1980794.282552083 17.9876302 0 18.9765625 0 19.9016927 0 20.633138.242675781 21.1708984.728027344 21.7086589 1.21337891 21.9775391 1.859375 21.9775391 2.66601562 21.9775391 3.64583333 21.3531901 4.8125 20.1044922 6.16601563L17.4384766 9.05761719 22.4355469 9.05761719 22.4355469 10.0898438ZM30.0166016 5.84472656C30.0166016 7.32584635 29.7636719 8.42643229 29.2578125 9.14648438 28.7519531 9.86653646 27.961263 10.2265625 26.8857422 10.2265625 25.8238932 10.2265625 25.0377604 9.87451172 24.5273438 9.17041016 24.0169271 8.46630859 23.7526042 7.41471354 23.734375 6.015625L23.734375 4.32714844C23.734375 2.86425781 23.9873047 1.77734375 24.4931641 1.06640625 24.9990234.35546875 25.7919922 0 26.8720703 0 27.9430339 0 28.7314453.342936198 29.2373047 1.02880859 29.7431641 1.71468099 30.0029297 2.77311198 30.0166016 4.20410156L30.0166016 5.84472656ZM28.7519531 4.11523438C28.7519531 3.04427083 28.6015625 2.26383464 28.3007812 1.77392578 28 1.28401693 27.523763 1.0390625 26.8720703 1.0390625 26.2249349 1.0390625 25.7532552 1.2828776 25.4570312 1.77050781 25.1608073 2.25813802 25.008138 3.0078125 24.9990234 4.01953125L24.9990234 6.04296875C24.9990234 7.11848958 25.1551107 7.91259766 25.4672852 8.42529297 25.7794596 8.93798828 26.2522786 9.19433594 26.8857422 9.19433594 27.5100911 9.19433594 27.9737956 8.95279948 28.2768555 8.46972656 28.5799154 7.98665365 28.7382812 7.22558594 28.7519531 6.18652344L28.7519531 4.11523438Z" transform="translate(464.913 336.91)"/><g fill="#374040" fill-rule="nonzero" transform="translate(507.913 336.91)"><path d="M6.71289062 10.0898438.19140625 10.0898438.19140625 9.18066406 3.63671875 5.35253906C4.14713542 4.77376302 4.4991862 4.30322266 4.69287109 3.94091797 4.88655599 3.57861328 4.98339844 3.20377604 4.98339844 2.81640625 4.98339844 2.296875 4.82617188 1.87076823 4.51171875 1.53808594 4.19726562 1.20540365 3.77799479 1.0390625 3.25390625 1.0390625 2.625 1.0390625 2.13623047 1.2179362 1.78759766 1.57568359 1.43896484 1.93343099 1.26464844 2.4313151 1.26464844 3.06933594L0 3.06933594C0 2.15332031.295084635 1.41276042.885253906.84765625 1.47542318.282552083 2.26497396 0 3.25390625 0 4.17903646 0 4.91048177.242675781 5.44824219.728027344 5.9860026 1.21337891 6.25488281 1.859375 6.25488281 2.66601562 6.25488281 3.64583333 5.63053385 4.8125 4.38183594 6.16601563L1.71582031 9.05761719 6.71289062 9.05761719 6.71289062 10.0898438ZM14.2939453 5.84472656C14.2939453 7.32584635 14.0410156 8.42643229 13.5351562 9.14648438 13.0292969 9.86653646 12.2386068 10.2265625 11.1630859 10.2265625 10.101237 10.2265625 9.31510417 9.87451172 8.8046875 9.17041016 8.29427083 8.46630859 8.02994792 7.41471354 8.01171875 6.015625L8.01171875 4.32714844C8.01171875 2.86425781 8.26464844 1.77734375 8.77050781 1.06640625 9.27636719.35546875 10.0693359 0 11.1494141 0 12.2203776 0 13.0087891.342936198 13.5146484 1.02880859 14.0205078 1.71468099 14.2802734 2.77311198 14.2939453 4.20410156L14.2939453 5.84472656ZM13.0292969 4.11523438C13.0292969 3.04427083 12.8789062 2.26383464 12.578125 1.77392578 12.2773438 1.28401693 11.8011068 1.0390625 11.1494141 1.0390625 10.5022786 1.0390625 10.030599 1.2828776 9.734375 1.77050781 9.43815104 2.25813802 9.28548177 3.0078125 9.27636719 4.01953125L9.27636719 6.04296875C9.27636719 7.11848958 9.43245443 7.91259766 9.74462891 8.42529297 10.0568034 8.93798828 10.5296224 9.19433594 11.1630859 9.19433594 11.7874349 9.19433594 12.2511393 8.95279948 12.5541992 8.46972656 12.8572591 7.98665365 13.015625 7.22558594 13.0292969 6.18652344L13.0292969 4.11523438ZM22.4355469 10.0898438 15.9140625 10.0898438 15.9140625 9.18066406 19.359375 5.35253906C19.8697917 4.77376302 20.2218424 4.30322266 20.4155273 3.94091797 20.6092122 3.57861328 20.7060547 3.20377604 20.7060547 2.81640625 20.7060547 2.296875 20.5488281 1.87076823 20.234375 1.53808594 19.9199219 1.20540365 19.500651 1.0390625 18.9765625 1.0390625 18.3476562 1.0390625 17.8588867 1.2179362 17.5102539 1.57568359 17.1616211 1.93343099 16.9873047 2.4313151 16.9873047 3.06933594L15.7226562 3.06933594C15.7226562 2.15332031 16.0177409 1.41276042 16.6079102.84765625 17.1980794.282552083 17.9876302 0 18.9765625 0 19.9016927 0 20.633138.242675781 21.1708984.728027344 21.7086589 1.21337891 21.9775391 1.859375 21.9775391 2.66601562 21.9775391 3.64583333 21.3531901 4.8125 20.1044922 6.16601563L17.4384766 9.05761719 22.4355469 9.05761719 22.4355469 10.0898438Z"/><polygon points="27.932 10.09 26.66 10.09 26.66 1.661 24.11 2.598 24.11 1.449 27.733 .089 27.932 .089"/></g><g fill="#374040" fill-rule="nonzero" transform="translate(87.913 336.91)"><path d="M6.71289062 10.0898438.19140625 10.0898438.19140625 9.18066406 3.63671875 5.35253906C4.14713542 4.77376302 4.4991862 4.30322266 4.69287109 3.94091797 4.88655599 3.57861328 4.98339844 3.20377604 4.98339844 2.81640625 4.98339844 2.296875 4.82617188 1.87076823 4.51171875 1.53808594 4.19726562 1.20540365 3.77799479 1.0390625 3.25390625 1.0390625 2.625 1.0390625 2.13623047 1.2179362 1.78759766 1.57568359 1.43896484 1.93343099 1.26464844 2.4313151 1.26464844 3.06933594L0 3.06933594C0 2.15332031.295084635 1.41276042.885253906.84765625 1.47542318.282552083 2.26497396 0 3.25390625 0 4.17903646 0 4.91048177.242675781 5.44824219.728027344 5.9860026 1.21337891 6.25488281 1.859375 6.25488281 2.66601562 6.25488281 3.64583333 5.63053385 4.8125 4.38183594 6.16601563L1.71582031 9.05761719 6.71289062 9.05761719 6.71289062 10.0898438ZM14.2939453 5.84472656C14.2939453 7.32584635 14.0410156 8.42643229 13.5351562 9.14648438 13.0292969 9.86653646 12.2386068 10.2265625 11.1630859 10.2265625 10.101237 10.2265625 9.31510417 9.87451172 8.8046875 9.17041016 8.29427083 8.46630859 8.02994792 7.41471354 8.01171875 6.015625L8.01171875 4.32714844C8.01171875 2.86425781 8.26464844 1.77734375 8.77050781 1.06640625 9.27636719.35546875 10.0693359 0 11.1494141 0 12.2203776 0 13.0087891.342936198 13.5146484 1.02880859 14.0205078 1.71468099 14.2802734 2.77311198 14.2939453 4.20410156L14.2939453 5.84472656ZM13.0292969 4.11523438C13.0292969 3.04427083 12.8789062 2.26383464 12.578125 1.77392578 12.2773438 1.28401693 11.8011068 1.0390625 11.1494141 1.0390625 10.5022786 1.0390625 10.030599 1.2828776 9.734375 1.77050781 9.43815104 2.25813802 9.28548177 3.0078125 9.27636719 4.01953125L9.27636719 6.04296875C9.27636719 7.11848958 9.43245443 7.91259766 9.74462891 8.42529297 10.0568034 8.93798828 10.5296224 9.19433594 11.1630859 9.19433594 11.7874349 9.19433594 12.2511393 8.95279948 12.5541992 8.46972656 12.8572591 7.98665365 13.015625 7.22558594 13.0292969 6.18652344L13.0292969 4.11523438Z"/><polygon points="20.07 10.09 18.799 10.09 18.799 1.661 16.249 2.598 16.249 1.449 19.872 .089 20.07 .089"/><polygon points="27.932 10.09 26.66 10.09 26.66 1.661 24.11 2.598 24.11 1.449 27.733 .089 27.932 .089"/></g><g fill="#374040" fill-rule="nonzero" transform="translate(44.913 336.91)"><path d="M6.71289062 10.0898438.19140625 10.0898438.19140625 9.18066406 3.63671875 5.35253906C4.14713542 4.77376302 4.4991862 4.30322266 4.69287109 3.94091797 4.88655599 3.57861328 4.98339844 3.20377604 4.98339844 2.81640625 4.98339844 2.296875 4.82617188 1.87076823 4.51171875 1.53808594 4.19726562 1.20540365 3.77799479 1.0390625 3.25390625 1.0390625 2.625 1.0390625 2.13623047 1.2179362 1.78759766 1.57568359 1.43896484 1.93343099 1.26464844 2.4313151 1.26464844 3.06933594L0 3.06933594C0 2.15332031.295084635 1.41276042.885253906.84765625 1.47542318.282552083 2.26497396 0 3.25390625 0 4.17903646 0 4.91048177.242675781 5.44824219.728027344 5.9860026 1.21337891 6.25488281 1.859375 6.25488281 2.66601562 6.25488281 3.64583333 5.63053385 4.8125 4.38183594 6.16601563L1.71582031 9.05761719 6.71289062 9.05761719 6.71289062 10.0898438ZM14.2939453 5.84472656C14.2939453 7.32584635 14.0410156 8.42643229 13.5351562 9.14648438 13.0292969 9.86653646 12.2386068 10.2265625 11.1630859 10.2265625 10.101237 10.2265625 9.31510417 9.87451172 8.8046875 9.17041016 8.29427083 8.46630859 8.02994792 7.41471354 8.01171875 6.015625L8.01171875 4.32714844C8.01171875 2.86425781 8.26464844 1.77734375 8.77050781 1.06640625 9.27636719.35546875 10.0693359 0 11.1494141 0 12.2203776 0 13.0087891.342936198 13.5146484 1.02880859 14.0205078 1.71468099 14.2802734 2.77311198 14.2939453 4.20410156L14.2939453 5.84472656ZM13.0292969 4.11523438C13.0292969 3.04427083 12.8789062 2.26383464 12.578125 1.77392578 12.2773438 1.28401693 11.8011068 1.0390625 11.1494141 1.0390625 10.5022786 1.0390625 10.030599 1.2828776 9.734375 1.77050781 9.43815104 2.25813802 9.28548177 3.0078125 9.27636719 4.01953125L9.27636719 6.04296875C9.27636719 7.11848958 9.43245443 7.91259766 9.74462891 8.42529297 10.0568034 8.93798828 10.5296224 9.19433594 11.1630859 9.19433594 11.7874349 9.19433594 12.2511393 8.95279948 12.5541992 8.46972656 12.8572591 7.98665365 13.015625 7.22558594 13.0292969 6.18652344L13.0292969 4.11523438Z"/><polygon points="20.07 10.09 18.799 10.09 18.799 1.661 16.249 2.598 16.249 1.449 19.872 .089 20.07 .089"/><path d="M30.0166016,5.84472656 C30.0166016,7.32584635 29.7636719,8.42643229 29.2578125,9.14648438 C28.7519531,9.86653646 27.961263,10.2265625 26.8857422,10.2265625 C25.8238932,10.2265625 25.0377604,9.87451172 24.5273438,9.17041016 C24.0169271,8.46630859 23.7526042,7.41471354 23.734375,6.015625 L23.734375,4.32714844 C23.734375,2.86425781 23.9873047,1.77734375 24.4931641,1.06640625 C24.9990234,0.35546875 25.7919922,0 26.8720703,0 C27.9430339,0 28.7314453,0.342936198 29.2373047,1.02880859 C29.7431641,1.71468099 30.0029297,2.77311198 30.0166016,4.20410156 L30.0166016,5.84472656 Z M28.7519531,4.11523438 C28.7519531,3.04427083 28.6015625,2.26383464 28.3007812,1.77392578 C28,1.28401693 27.523763,1.0390625 26.8720703,1.0390625 C26.2249349,1.0390625 25.7532552,1.2828776 25.4570312,1.77050781 C25.1608073,2.25813802 25.008138,3.0078125 24.9990234,4.01953125 L24.9990234,6.04296875 C24.9990234,7.11848958 25.1551107,7.91259766 25.4672852,8.42529297 C25.7794596,8.93798828 26.2522786,9.19433594 26.8857422,9.19433594 C27.5100911,9.19433594 27.9737956,8.95279948 28.2768555,8.46972656 C28.5799154,7.98665365 28.7382812,7.22558594 28.7519531,6.18652344 L28.7519531,4.11523438 Z"/></g><path fill="#374040" fill-rule="nonzero" d="M6.28222656,5.84472656 C6.28222656,7.32584635 6.02929688,8.42643229 5.5234375,9.14648438 C5.01757812,9.86653646 4.22688802,10.2265625 3.15136719,10.2265625 C2.08951823,10.2265625 1.30338542,9.87451172 0.79296875,9.17041016 C0.282552083,8.46630859 0.0182291667,7.41471354 0,6.015625 L0,4.32714844 C0,2.86425781 0.252929688,1.77734375 0.758789062,1.06640625 C1.26464844,0.35546875 2.05761719,0 3.13769531,0 C4.20865885,0 4.99707031,0.342936198 5.50292969,1.02880859 C6.00878906,1.71468099 6.26855469,2.77311198 6.28222656,4.20410156 L6.28222656,5.84472656 Z M5.01757812,4.11523438 C5.01757812,3.04427083 4.8671875,2.26383464 4.56640625,1.77392578 C4.265625,1.28401693 3.78938802,1.0390625 3.13769531,1.0390625 C2.4905599,1.0390625 2.01888021,1.2828776 1.72265625,1.77050781 C1.42643229,2.25813802 1.27376302,3.0078125 1.26464844,4.01953125 L1.26464844,6.04296875 C1.26464844,7.11848958 1.42073568,7.91259766 1.73291016,8.42529297 C2.04508464,8.93798828 2.51790365,9.19433594 3.15136719,9.19433594 C3.77571615,9.19433594 4.23942057,8.95279948 4.54248047,8.46972656 C4.84554036,7.98665365 5.00390625,7.22558594 5.01757812,6.18652344 L5.01757812,4.11523438 Z" transform="translate(16.925 320.91)"/><g fill="#374040" fill-rule="nonzero" transform="translate(9.44 217.91)"><polygon points="3.821 10.09 2.55 10.09 2.55 1.661 0 2.598 0 1.449 3.623 .089 3.821 .089"/><path d="M13.7675781,5.84472656 C13.7675781,7.32584635 13.5146484,8.42643229 13.0087891,9.14648438 C12.5029297,9.86653646 11.7122396,10.2265625 10.6367188,10.2265625 C9.57486979,10.2265625 8.78873698,9.87451172 8.27832031,9.17041016 C7.76790365,8.46630859 7.50358073,7.41471354 7.48535156,6.015625 L7.48535156,4.32714844 C7.48535156,2.86425781 7.73828125,1.77734375 8.24414062,1.06640625 C8.75,0.35546875 9.54296875,0 10.6230469,0 C11.6940104,0 12.4824219,0.342936198 12.9882812,1.02880859 C13.4941406,1.71468099 13.7539062,2.77311198 13.7675781,4.20410156 L13.7675781,5.84472656 Z M12.5029297,4.11523438 C12.5029297,3.04427083 12.3525391,2.26383464 12.0517578,1.77392578 C11.7509766,1.28401693 11.2747396,1.0390625 10.6230469,1.0390625 C9.97591146,1.0390625 9.50423177,1.2828776 9.20800781,1.77050781 C8.91178385,2.25813802 8.75911458,3.0078125 8.75,4.01953125 L8.75,6.04296875 C8.75,7.11848958 8.90608724,7.91259766 9.21826172,8.42529297 C9.5304362,8.93798828 10.0032552,9.19433594 10.6367188,9.19433594 C11.2610677,9.19433594 11.7247721,8.95279948 12.027832,8.46972656 C12.3308919,7.98665365 12.4892578,7.22558594 12.5029297,6.18652344 L12.5029297,4.11523438 Z"/></g><path fill="#374040" fill-rule="nonzero" d="M6.71289062 10.0898438.19140625 10.0898438.19140625 9.18066406 3.63671875 5.35253906C4.14713542 4.77376302 4.4991862 4.30322266 4.69287109 3.94091797 4.88655599 3.57861328 4.98339844 3.20377604 4.98339844 2.81640625 4.98339844 2.296875 4.82617188 1.87076823 4.51171875 1.53808594 4.19726562 1.20540365 3.77799479 1.0390625 3.25390625 1.0390625 2.625 1.0390625 2.13623047 1.2179362 1.78759766 1.57568359 1.43896484 1.93343099 1.26464844 2.4313151 1.26464844 3.06933594L0 3.06933594C0 2.15332031.295084635 1.41276042.885253906.84765625 1.47542318.282552083 2.26497396 0 3.25390625 0 4.17903646 0 4.91048177.242675781 5.44824219.728027344 5.9860026 1.21337891 6.25488281 1.859375 6.25488281 2.66601562 6.25488281 3.64583333 5.63053385 4.8125 4.38183594 6.16601563L1.71582031 9.05761719 6.71289062 9.05761719 6.71289062 10.0898438ZM14.2939453 5.84472656C14.2939453 7.32584635 14.0410156 8.42643229 13.5351562 9.14648438 13.0292969 9.86653646 12.2386068 10.2265625 11.1630859 10.2265625 10.101237 10.2265625 9.31510417 9.87451172 8.8046875 9.17041016 8.29427083 8.46630859 8.02994792 7.41471354 8.01171875 6.015625L8.01171875 4.32714844C8.01171875 2.86425781 8.26464844 1.77734375 8.77050781 1.06640625 9.27636719.35546875 10.0693359 0 11.1494141 0 12.2203776 0 13.0087891.342936198 13.5146484 1.02880859 14.0205078 1.71468099 14.2802734 2.77311198 14.2939453 4.20410156L14.2939453 5.84472656ZM13.0292969 4.11523438C13.0292969 3.04427083 12.8789062 2.26383464 12.578125 1.77392578 12.2773438 1.28401693 11.8011068 1.0390625 11.1494141 1.0390625 10.5022786 1.0390625 10.030599 1.2828776 9.734375 1.77050781 9.43815104 2.25813802 9.28548177 3.0078125 9.27636719 4.01953125L9.27636719 6.04296875C9.27636719 7.11848958 9.43245443 7.91259766 9.74462891 8.42529297 10.0568034 8.93798828 10.5296224 9.19433594 11.1630859 9.19433594 11.7874349 9.19433594 12.2511393 8.95279948 12.5541992 8.46972656 12.8572591 7.98665365 13.015625 7.22558594 13.0292969 6.18652344L13.0292969 4.11523438Z" transform="translate(8.913 113.91)"/><path fill="#374040" fill-rule="nonzero" d="M2.0234375 4.49804688 2.97363281 4.49804688C3.57063802 4.48893229 4.04003906 4.33170573 4.38183594 4.02636719 4.72363281 3.72102865 4.89453125 3.30859375 4.89453125 2.7890625 4.89453125 1.62239583 4.31347656 1.0390625 3.15136719 1.0390625 2.60449219 1.0390625 2.16813151 1.19514974 1.84228516 1.50732422 1.5164388 1.8194987 1.35351562 2.23307292 1.35351562 2.74804688L.0888671875 2.74804688C.0888671875 1.95963542.377115885 1.30452474.953613281.782714844 1.53011068.260904948 2.26269531 0 3.15136719 0 4.09016927 0 4.82617188.248372396 5.359375.745117188 5.89257812 1.24186198 6.15917969 1.93229167 6.15917969 2.81640625 6.15917969 3.24934896 6.01904297 3.66861979 5.73876953 4.07421875 5.45849609 4.47981771 5.07682292 4.7828776 4.59375 4.98339844 5.140625 5.15657552 5.5633138 5.4436849 5.86181641 5.84472656 6.16031901 6.24576823 6.30957031 6.73567708 6.30957031 7.31445312 6.30957031 8.20768229 6.01790365 8.91634115 5.43457031 9.44042969 4.85123698 9.96451823 4.09244792 10.2265625 3.15820312 10.2265625 2.22395833 10.2265625 1.46402995 9.97363281.878417969 9.46777344.29280599 8.96191406 0 8.29427083 0 7.46484375L1.27148438 7.46484375C1.27148438 7.98893229 1.44238281 8.40820312 1.78417969 8.72265625 2.12597656 9.03710938 2.58398438 9.19433594 3.15820312 9.19433594 3.76888021 9.19433594 4.2360026 9.03483073 4.55957031 8.71582031 4.88313802 8.3968099 5.04492188 7.93880208 5.04492188 7.34179688 5.04492188 6.76302083 4.8671875 6.3186849 4.51171875 6.00878906 4.15625 5.69889323 3.64355469 5.53938802 2.97363281 5.53027344L2.0234375 5.53027344 2.0234375 4.49804688ZM14.2871094 5.84472656C14.2871094 7.32584635 14.0341797 8.42643229 13.5283203 9.14648438 13.0224609 9.86653646 12.2317708 10.2265625 11.15625 10.2265625 10.094401 10.2265625 9.30826823 9.87451172 8.79785156 9.17041016 8.2874349 8.46630859 8.02311198 7.41471354 8.00488281 6.015625L8.00488281 4.32714844C8.00488281 2.86425781 8.2578125 1.77734375 8.76367188 1.06640625 9.26953125.35546875 10.0625 0 11.1425781 0 12.2135417 0 13.0019531.342936198 13.5078125 1.02880859 14.0136719 1.71468099 14.2734375 2.77311198 14.2871094 4.20410156L14.2871094 5.84472656ZM13.0224609 4.11523438C13.0224609 3.04427083 12.8720703 2.26383464 12.5712891 1.77392578 12.2705078 1.28401693 11.7942708 1.0390625 11.1425781 1.0390625 10.4954427 1.0390625 10.023763 1.2828776 9.72753906 1.77050781 9.4313151 2.25813802 9.27864583 3.0078125 9.26953125 4.01953125L9.26953125 6.04296875C9.26953125 7.11848958 9.42561849 7.91259766 9.73779297 8.42529297 10.0499674 8.93798828 10.5227865 9.19433594 11.15625 9.19433594 11.780599 9.19433594 12.2443034 8.95279948 12.5473633 8.46972656 12.8504232 7.98665365 13.0087891 7.22558594 13.0224609 6.18652344L13.0224609 4.11523438Z" transform="translate(8.92 10.91)"/></g></svg>